<svg id="Layer_1" data-name="Layer 1" xmlns="http://www.w3.org/2000/svg" viewBox="0 0 1303.63 298.57"><defs><style>.cls-1{fill:#201d5c;}</style></defs><title>Neuralume-Logo-Mono-White</title><path class="cls-1" d="M335.43,103.8h12.62v89.88H333.88L291.7,122v71.64H279.08V103.8h15.76l40.59,68.94Zm69.09,49.54H437V142.18H404.52V115h40.34V103.8H391.41v89.88h55.65V182.52H404.52Zm133.08,4.38c0,21.4-8.4,25.78-21,25.78-14.06,0-19.79-7-19.79-24.19V103.8H483.69v56.73c0,21.77,11.9,34.25,32.66,34.25,22.16,0,34.36-12.64,34.36-35.59V103.8H537.6Zm94.25-3.21,27.06,39.17H644l-26-38H606.44v38H593.33V103.8h27.52c20.21,0,31.8,9.32,31.8,25.56v.49C652.65,142.61,645.28,151.3,631.85,154.51Zm-10.26-39.68H606.44v29.92h15.15c11.91,0,17.95-5,17.95-14.9v-.49C639.54,119.31,634,114.83,621.59,114.83Zm111.87-11,30.42,89.88H750.75l-8.55-25.19H707.91l-8.43,25.19H686.83l30.92-89.88Zm-8.35,13.91-13.43,39.87h26.87Zm88.14-13.91H800.14v89.88h53.09V182.52h-40ZM940.1,157.72c0,21.4-8.4,25.78-21,25.78-14.05,0-19.79-7-19.79-24.19V103.8H886.19v56.73c0,21.77,11.91,34.25,32.66,34.25,22.16,0,34.36-12.64,34.36-35.59V103.8H940.1Zm98.76,12L1012.7,103.8H995.83v89.88h12.26V125.17L1036,193.68h5l26.89-68.31v68.31h13.11V103.8h-16.76Zm98.55,12.8V153.34h32.51V142.18h-32.51V115h40.34V103.8h-53.46v89.88H1180V182.52Z"/><path class="cls-1" d="M174.74,119q5.22,9.87,5.23,18.11a42.55,42.55,0,0,1-42.55,42.55c-.7,0-1.39,0-2.07,0q9.68,18.28,37.32,42.19,42.56-36.79,42.56-60.29A42.56,42.56,0,0,0,174.74,119Z"/><path class="cls-1" d="M172.67,118.93c.7,0,1.38,0,2.07,0q-9.69-18.28-37.32-42.18-42.57,36.78-42.56,60.29a42.56,42.56,0,0,0,40.49,42.5q-5.23-9.87-5.24-18.1A42.56,42.56,0,0,1,172.67,118.93Z"/></svg>