<svg id="Layer_1" data-name="Layer 1" xmlns="http://www.w3.org/2000/svg" viewBox="0 0 1303.63 298.57"><defs><style>.cls-1{fill:#fff;}</style></defs><title>Neuralume-Logo-BW-Black</title><rect width="1303.63" height="298.57"/><path class="cls-1" d="M349.85,103.8h12.62v89.88H348.3L306.11,122v71.64H293.49V103.8h15.76l40.6,68.94Zm69.08,49.54h32.52V142.18H418.93V115h40.34V103.8H405.82v89.88h55.65V182.52H418.93ZM552,157.72c0,21.4-8.4,25.78-21,25.78-14,0-19.79-7-19.79-24.19V103.8H498.1v56.73c0,21.77,11.9,34.25,32.66,34.25,22.16,0,34.36-12.64,34.36-35.59V103.8H552Zm94.25-3.21,27.06,39.17H658.45l-26-38H620.85v38H607.74V103.8h27.52c20.21,0,31.8,9.32,31.8,25.56v.49C667.06,142.61,659.69,151.3,646.26,154.51ZM636,114.83H620.85v29.92H636c11.91,0,18-5,18-14.9v-.49C654,119.31,648.41,114.83,636,114.83Zm111.87-11,30.42,89.88H765.16l-8.55-25.19H722.32l-8.43,25.19H701.24l30.92-89.88Zm-8.35,13.91-13.43,39.87H753Zm88.15-13.91H814.55v89.88h53.09V182.52h-40Zm126.84,53.92c0,21.4-8.4,25.78-21,25.78-14,0-19.78-7-19.78-24.19V103.8H900.6v56.73c0,21.77,11.91,34.25,32.66,34.25,22.16,0,34.36-12.64,34.36-35.59V103.8H954.51Zm98.76,12-26.16-65.92h-16.87v89.88h12.26V125.17l27.88,68.51h5l26.89-68.31v68.31h13.12V103.8H1078.6Zm98.55,12.8V153.34h32.51V142.18h-32.51V115h40.34V103.8h-53.45v89.88h55.65V182.52Z"/><path class="cls-1" d="M189.15,119q5.23,9.87,5.23,18.11a42.55,42.55,0,0,1-42.55,42.55c-.7,0-1.39,0-2.07,0q9.69,18.28,37.32,42.19,42.55-36.79,42.56-60.29A42.56,42.56,0,0,0,189.15,119Z"/><path class="cls-1" d="M187.08,118.93c.7,0,1.39,0,2.07,0q-9.69-18.28-37.32-42.18-42.56,36.78-42.56,60.29a42.56,42.56,0,0,0,40.49,42.5q-5.23-9.87-5.23-18.1A42.55,42.55,0,0,1,187.08,118.93Z"/></svg>