<svg id="Layer_1" data-name="Layer 1" xmlns="http://www.w3.org/2000/svg" xmlns:xlink="http://www.w3.org/1999/xlink" viewBox="0 0 332.95 332.95"><defs><style>.cls-1{fill:url(#radial-gradient);}.cls-2{fill:url(#radial-gradient-2);}</style><radialGradient id="radial-gradient" cx="192.54" cy="274.86" r="134.98" gradientUnits="userSpaceOnUse"><stop offset="0" stop-color="#be64bd"/><stop offset="0.46" stop-color="#d262b4"/><stop offset="1" stop-color="#ff8d74"/></radialGradient><radialGradient id="radial-gradient-2" cx="152.8" cy="59.66" r="138.7" xlink:href="#radial-gradient"/></defs><title>Neuralume-Square-White</title><path class="cls-1" d="M195.83,121.31q7.78,14.72,7.8,27a63.42,63.42,0,0,1-63.43,63.42c-1,0-2.06,0-3.08-.07q14.43,27.26,55.63,62.86,63.42-54.81,63.42-89.84A63.43,63.43,0,0,0,195.83,121.31Z"/><path class="cls-2" d="M192.75,121.24c1,0,2.06,0,3.08.07Q181.4,94.06,140.2,58.45q-63.42,54.81-63.42,89.84a63.43,63.43,0,0,0,60.34,63.35q-7.78-14.71-7.8-27A63.42,63.42,0,0,1,192.75,121.24Z"/></svg>