<svg id="Layer_1" data-name="Layer 1" xmlns="http://www.w3.org/2000/svg" xmlns:xlink="http://www.w3.org/1999/xlink" viewBox="0 0 187.05 220.84"><defs><style>.cls-1{fill:url(#radial-gradient);}.cls-2{fill:url(#radial-gradient-2);}</style><radialGradient id="radial-gradient" cx="119.59" cy="2.97" r="134.98" gradientTransform="matrix(1, 0, 0, -1, 0, 221.78)" gradientUnits="userSpaceOnUse"><stop offset="0" stop-color="#be64bd"/><stop offset="0.46" stop-color="#d262b4"/><stop offset="1" stop-color="#ff8d74"/></radialGradient><radialGradient id="radial-gradient-2" cx="79.85" cy="218.17" r="138.7" xlink:href="#radial-gradient"/></defs><title>neuralume-logo-square</title><path class="cls-1" d="M122.88,65.25q7.78,14.73,7.8,27a63.41,63.41,0,0,1-63.42,63.42h0c-1,0-2.06,0-3.08-.07q14.43,27.27,55.63,62.86,63.42-54.81,63.42-89.84A63.43,63.43,0,0,0,122.88,65.25Z"/><path class="cls-2" d="M119.8,65.18c1,0,2.06,0,3.08.07Q108.45,38,67.25,2.39,3.83,57.2,3.83,92.23a63.42,63.42,0,0,0,60.34,63.35q-7.79-14.7-7.8-27A63.43,63.43,0,0,1,119.8,65.18Z"/></svg>