<svg id="Layer_1" data-name="Layer 1" xmlns="http://www.w3.org/2000/svg" xmlns:xlink="http://www.w3.org/1999/xlink" viewBox="0 0 1088.4 176.04"><defs><style>.cls-1{fill:#fff;}.cls-2{fill:url(#radial-gradient);}.cls-3{fill:url(#radial-gradient-2);}</style><radialGradient id="radial-gradient" cx="79.35" cy="704.73" r="90.57" gradientTransform="translate(0 -544)" gradientUnits="userSpaceOnUse"><stop offset="0" stop-color="#be64bd"/><stop offset="0.46" stop-color="#d262b4"/><stop offset="1" stop-color="#ff8d74"/></radialGradient><radialGradient id="radial-gradient-2" cx="52.68" cy="560.33" r="93.07" xlink:href="#radial-gradient"/></defs><title>neuralume-logo</title><path class="cls-1" d="M242.3,42.52h12.6v89.9H240.7l-42.2-71.7v71.6H185.9V42.52h15.8l40.6,68.9Zm69,49.5h32.5V80.82H311.3V53.72h40.3V42.52H298.2v89.9h55.6v-11.2H311.3Zm133.1,4.4c0,21.4-8.4,25.8-21,25.8-14,0-19.8-7-19.8-24.2V42.52H390.5v56.7c0,21.8,11.9,34.2,32.7,34.2,22.2,0,34.4-12.6,34.4-35.6V42.42H444.4Zm94.2-3.2,27.1,39.2H550.8l-26-38H513.2v38H500.1V42.52h27.5c20.2,0,31.8,9.3,31.8,25.6v.5c.1,12.7-7.3,21.4-20.8,24.6Zm-10.2-39.7H513.2v29.9h15.2c11.9,0,18-5,18-14.9V68C546.4,58,540.8,53.52,528.4,53.52Zm111.9-11,30.4,89.9H657.6l-8.5-25.2H614.8l-8.4,25.2H593.7l30.9-89.9Zm-8.4,13.9-13.4,39.9h26.9Zm88.2-13.9H707v89.9h53.1v-11.2h-40Zm126.8,54c0,21.4-8.4,25.8-21,25.8-14,0-19.8-7-19.8-24.2V42.62H793v56.7c0,21.8,11.9,34.2,32.7,34.2,22.2,0,34.4-12.6,34.4-35.6V42.52H847v54Zm98.8,12-26.2-65.9H902.6v89.9h12.3V64l27.9,68.5h5l26.9-68.3v68.3h13.1V42.62H971Zm98.5,12.8V92.12h32.5V80.92h-32.5V53.72h40.3V42.52h-53.4v89.9h55.7v-11.2Z"/><path class="cls-2" d="M81.5,57.72c3.5,6.6,5.2,12.6,5.2,18.1a42.64,42.64,0,0,1-42.6,42.6H42c6.5,12.2,18.9,26.2,37.3,42.2q42.6-36.75,42.6-60.3A42.33,42.33,0,0,0,81.5,57.72Z"/><path class="cls-3" d="M79.5,57.62h2.1c-6.5-12.2-18.9-26.2-37.3-42.2Q1.7,52.17,1.7,75.72a42.54,42.54,0,0,0,40.5,42.5c-3.5-6.6-5.2-12.6-5.2-18.1A42.53,42.53,0,0,1,79.5,57.62Z"/></svg>