<?xml version="1.0" encoding="utf-8"?>
<!-- Generator: Adobe Illustrator 24.0.3, SVG Export Plug-In . SVG Version: 6.00 Build 0)  -->
<svg version="1.1" id="Layer_1" xmlns="http://www.w3.org/2000/svg" xmlns:xlink="http://www.w3.org/1999/xlink" x="0px" y="0px"
	 viewBox="0 0 1085.1 145.1" style="enable-background:new 0 0 1085.1 145.1;" xml:space="preserve">
<style type="text/css">
	.st0{fill:#201D5C;}
	.st1{fill:url(#SVGID_1_);}
	.st2{fill:url(#SVGID_2_);}
</style>
<title>Neuralume-Logo-Full-White</title>
<path class="st0" d="M240.6,27.1h12.6v89.9H239l-42.2-71.7v71.6h-12.6V27.1H200L240.6,96V27.1z M309.7,76.6h32.5V65.4h-32.5V38.2
	H350V27.1h-53.4v89.9h55.6v-11.2h-42.5V76.6z M442.7,81c0,21.4-8.4,25.8-21,25.8c-14,0-19.8-7-19.8-24.2V27.1h-13.1v56.7
	c0,21.8,11.9,34.2,32.7,34.2c22.2,0,34.4-12.6,34.4-35.6V27.1h-13.1V81z M537,77.8l27.1,39.2h-14.9l-26-38h-11.6v38h-13.1V27.1H526
	c20.2,0,31.8,9.3,31.8,25.6v0.5C557.8,65.9,550.4,74.6,537,77.8L537,77.8z M526.7,38.1h-15.2V68h15.2c11.9,0,18-5,18-14.9v-0.5
	C544.7,42.6,539.1,38.1,526.7,38.1z M638.6,27.1L669,117h-13.1l-8.5-25.2h-34.3l-8.4,25.2H592l30.9-89.9L638.6,27.1z M630.3,41
	l-13.4,39.9h26.9L630.3,41z M718.4,27.1h-13.1V117h53.1v-11.2h-40L718.4,27.1z M845.2,81c0,21.4-8.4,25.8-21,25.8
	c-14,0-19.8-7-19.8-24.2V27.1h-13.1v56.7c0,21.8,11.9,34.2,32.7,34.2c22.2,0,34.4-12.6,34.4-35.6V27.1h-13.1V81z M944,93l-26.2-65.9
	H901V117h12.3V48.4l27.9,68.5h5L973,48.6v68.3h13.1V27.1h-16.8L944,93z M1042.6,105.8V76.6h32.5V65.4h-32.5V38.2h40.3V27.1h-53.4
	v89.9h55.7v-11.2L1042.6,105.8z"/>
<radialGradient id="SVGID_1_" cx="77.6801" cy="-0.8702" r="90.57" gradientTransform="matrix(1 0 0 -1 0 144.3898)" gradientUnits="userSpaceOnUse">
	<stop  offset="0" style="stop-color:#BE64BD"/>
	<stop  offset="0.46" style="stop-color:#D262B4"/>
	<stop  offset="1" style="stop-color:#FF8D74"/>
</radialGradient>
<path class="st1" d="M79.9,42.2c3.5,6.6,5.2,12.6,5.2,18.1c0,23.5-19.1,42.6-42.6,42.6l0,0c-0.7,0-1.4,0-2.1,0
	c6.5,12.2,18.9,26.2,37.3,42.2c28.4-24.5,42.6-44.6,42.6-60.3C120.4,62.1,102.6,43.4,79.9,42.2z"/>
<radialGradient id="SVGID_2_" cx="51.0101" cy="143.5298" r="93.07" gradientTransform="matrix(1 0 0 -1 0 144.3898)" gradientUnits="userSpaceOnUse">
	<stop  offset="0" style="stop-color:#BE64BD"/>
	<stop  offset="0.46" style="stop-color:#D262B4"/>
	<stop  offset="1" style="stop-color:#FF8D74"/>
</radialGradient>
<path class="st2" d="M77.8,42.2c0.7,0,1.4,0,2.1,0C73.4,30,61,15.9,42.6,0C14.2,24.5,0,44.6,0,60.3c0,22.7,17.8,41.4,40.5,42.5
	c-3.5-6.6-5.2-12.6-5.2-18.1C35.3,61.2,54.3,42.2,77.8,42.2z"/>
</svg>
