<?xml version="1.0" encoding="utf-8"?>
<!-- Generator: Adobe Illustrator 24.0.3, SVG Export Plug-In . SVG Version: 6.00 Build 0)  -->
<svg version="1.1" id="Capa_1" xmlns="http://www.w3.org/2000/svg" xmlns:xlink="http://www.w3.org/1999/xlink" x="0px" y="0px"
	 viewBox="0 0 267 58" style="enable-background:new 0 0 267 58;" xml:space="preserve">
<style type="text/css">
	.st0{fill:#004587;}
	.st1{fill:#FFDD00;}
</style>
<g>
	<path class="st0" d="M70.8,0.7c1.2,0.4,1.9,0.7,2,0.7c0.4,0,0.7-0.1,0.9-0.4c0.2-0.3,0.4-0.6,0.4-0.9h0.8v6.8h-0.7
		c-0.7-1.5-1.4-2.6-2.1-3.5C70.7,1.8,69.2,1,67.5,1c-1.9,0-3.3,0.8-4.1,2.5c-0.8,1.7-1.2,3.9-1.2,6.7c0,2.1,0.2,3.8,0.7,5.1
		c0.9,2.5,2.5,3.8,4.9,3.8c1.5,0,2.8-0.4,4.1-1.2c0.7-0.5,1.6-1.2,2.6-2.3l0.9,0.7c-1.1,1.3-2.1,2.2-3,2.7c-1.5,1-3.2,1.5-5,1.5
		c-2.8,0-5.2-0.8-7.1-2.5c-2.1-1.9-3.2-4.4-3.2-7.6c0-3.1,1-5.7,3-7.6c1.9-1.8,4.2-2.7,7-2.7C68.3,0.1,69.5,0.3,70.8,0.7z"/>
	<path class="st0" d="M79.2,8.3c1.2-1.3,2.8-2,4.6-2c1.9,0,3.4,0.7,4.7,2.1s1.8,3,1.8,5c0,1.9-0.6,3.6-1.8,5
		c-1.2,1.4-2.8,2.1-4.7,2.1c-1.9,0-3.4-0.7-4.6-2c-1.2-1.3-1.8-3-1.8-5C77.4,11.3,78,9.7,79.2,8.3z M81.9,17.6
		c0.3,1.2,1,1.9,1.9,1.9c0.9,0,1.5-0.5,1.8-1.4c0.3-1,0.4-2.5,0.4-4.7c0-2.1-0.2-3.7-0.5-4.7c-0.3-1-0.9-1.4-1.8-1.4
		c-1,0-1.6,0.6-1.9,1.9c-0.2,0.8-0.3,2.3-0.3,4.2C81.6,15.4,81.7,16.8,81.9,17.6z"/>
	<path class="st0" d="M91.6,19.3c0.5-0.1,0.9-0.3,1.1-0.5c0.2-0.2,0.3-0.6,0.3-1.3V2.8c0-0.6-0.1-1-0.3-1.2
		c-0.2-0.2-0.6-0.3-1.1-0.5V0.4H97v17.1c0,0.6,0.1,1.1,0.3,1.3c0.2,0.2,0.6,0.4,1.1,0.5V20h-6.8L91.6,19.3L91.6,19.3z"/>
	<path class="st0" d="M101.5,8.2c1.2-1.2,2.6-1.8,4.2-1.8c0.9,0,1.8,0.3,2.7,0.8c0.8,0.5,1.5,1.2,1.9,2.1c0.3,0.7,0.6,1.5,0.7,2.6
		c0.1,0.5,0.1,0.9,0.1,1.1h-7.3c0.1,1.2,0.3,2.2,0.6,3c0.6,1.6,1.5,2.4,3,2.4c0.7,0,1.3-0.2,1.9-0.6c0.4-0.3,0.8-0.7,1.4-1.3
		l0.7,0.4c-0.9,1.5-1.9,2.5-3.1,3.1c-0.8,0.4-1.6,0.5-2.6,0.5c-1.4,0-2.7-0.6-4-1.7c-1.2-1.1-1.8-2.9-1.8-5.4
		C99.7,11.1,100.3,9.4,101.5,8.2z M107.6,11.8c0-1.7-0.2-2.9-0.4-3.6c-0.2-0.7-0.7-1-1.5-1c-0.8,0-1.3,0.4-1.5,1.2
		c-0.3,0.8-0.4,1.9-0.5,3.4H107.6z"/>
	<path class="st0" d="M112.2,19.3c0.5-0.1,0.9-0.2,1.2-0.5c0.3-0.2,0.9-0.8,1.6-1.6c0.3-0.4,0.7-0.9,1.1-1.5
		c0.5-0.6,0.9-1.2,1.2-1.6l-3.7-5.7c-0.3-0.5-0.5-0.7-0.7-0.9c-0.2-0.1-0.4-0.2-0.8-0.2V6.7h7.2v0.7c-0.7,0.1-1,0.2-1.2,0.2
		c-0.1,0-0.2,0.2-0.2,0.3c0,0.2,0.2,0.7,0.7,1.5c0.5,0.8,0.9,1.4,1.3,1.9c1-1.2,1.6-2,1.8-2.4c0.2-0.3,0.3-0.6,0.3-0.8
		c0-0.3-0.1-0.5-0.3-0.5c-0.2-0.1-0.6-0.1-1.1-0.1V6.7h4.8v0.7c-0.4,0.1-0.6,0.2-0.9,0.2c-0.4,0.2-0.8,0.5-1.1,0.9l-3,3.7l4.3,6.6
		c0.1,0.2,0.2,0.3,0.3,0.4c0.1,0.1,0.3,0.2,0.5,0.2V20h-6.9v-0.7c0.4,0,0.7-0.1,1-0.1c0.2-0.1,0.3-0.2,0.3-0.5
		c0-0.2-0.1-0.4-0.3-0.8c-0.1-0.2-0.3-0.5-0.5-0.9c-0.1-0.2-0.3-0.5-0.6-0.9c-0.3-0.4-0.5-0.7-0.7-1.1c-0.6,0.8-1.1,1.4-1.4,1.8
		c-0.6,0.9-0.9,1.5-0.9,1.7c0,0.3,0.1,0.5,0.4,0.6c0.2,0.1,0.6,0.1,1.1,0.2V20h-4.8L112.2,19.3L112.2,19.3z"/>
	<path class="st0" d="M126.6,19.3c0.5-0.1,0.8-0.2,1-0.4c0.3-0.3,0.4-0.7,0.4-1.4V9c0-0.6-0.1-1-0.3-1.2c-0.2-0.2-0.6-0.4-1.2-0.5
		V6.7h5.5v11c0,0.6,0.1,1,0.3,1.2s0.5,0.3,1.1,0.4V20h-6.8L126.6,19.3L126.6,19.3z M128.5,0.7c0.4-0.4,1-0.7,1.6-0.7
		c0.6,0,1.1,0.2,1.6,0.7c0.4,0.4,0.6,1,0.6,1.6c0,0.6-0.2,1.1-0.6,1.6c-0.4,0.4-1,0.7-1.6,0.7c-0.6,0-1.1-0.2-1.6-0.7
		c-0.4-0.4-0.7-1-0.7-1.6C127.9,1.6,128.1,1.1,128.5,0.7z"/>
	<path class="st0" d="M136.6,8.3c1.2-1.3,2.8-2,4.6-2c1.9,0,3.4,0.7,4.7,2.1c1.2,1.4,1.8,3,1.8,5c0,1.9-0.6,3.6-1.8,5
		c-1.2,1.4-2.8,2.1-4.7,2.1c-1.9,0-3.4-0.7-4.6-2c-1.2-1.3-1.8-3-1.8-5C134.7,11.3,135.4,9.7,136.6,8.3z M139.3,17.6
		c0.3,1.2,1,1.9,1.9,1.9c0.9,0,1.5-0.5,1.8-1.4c0.3-1,0.4-2.5,0.4-4.7c0-2.1-0.2-3.7-0.5-4.7c-0.3-1-0.9-1.4-1.8-1.4
		c-1,0-1.6,0.6-1.9,1.9c-0.2,0.8-0.3,2.3-0.3,4.2C139,15.4,139.1,16.8,139.3,17.6z"/>
</g>
<g>
	<path class="st0" d="M57.1,53.7c1.1,0,1.8-0.2,2.2-0.6s0.5-1,0.5-1.7V37.5c0-0.8-0.2-1.3-0.6-1.6c-0.4-0.3-1-0.4-2-0.5v-0.7h7.3
		l5.7,13.5h0.2l5.7-13.5h7.3v0.7c-1,0.1-1.7,0.3-2,0.5c-0.4,0.3-0.5,1-0.5,2.1V51c0,1.1,0.2,1.8,0.5,2.1c0.4,0.3,1,0.5,2,0.6v0.7
		h-9.6v-0.7c0.9,0,1.5-0.2,1.9-0.4c0.4-0.3,0.7-0.8,0.7-1.7V37.2h-0.2l-7.1,17.2h-0.8l-7.2-16.8H61v13.2c0,1,0.2,1.7,0.5,2.1
		c0.4,0.4,1.2,0.7,2.4,0.7v0.7h-6.8V53.7z"/>
	<path class="st0" d="M87.1,50.6c0.5-0.5,1.1-0.7,1.7-0.7c0.7,0,1.3,0.2,1.7,0.7c0.5,0.5,0.7,1.1,0.7,1.7c0,0.7-0.2,1.3-0.7,1.7
		c-0.5,0.5-1.1,0.7-1.7,0.7c-0.7,0-1.3-0.2-1.7-0.7c-0.5-0.5-0.7-1.1-0.7-1.7C86.4,51.7,86.6,51.1,87.1,50.6z"/>
	<path class="st0" d="M99.1,53.7c1-0.1,1.6-0.3,1.9-0.6c0.3-0.3,0.5-1,0.5-2.1V38.1c0-1.1-0.2-1.8-0.5-2.1c-0.3-0.3-1-0.5-1.9-0.6
		v-0.7h9.3c2.5,0,4.4,0.4,5.6,1.2c1.3,0.8,1.9,2.2,1.9,4.2c0,1-0.2,1.9-0.8,2.7c-0.5,0.8-1.3,1.5-2.5,2c-0.9,0.4-1.8,0.6-2.6,0.7
		c-0.9,0.1-2.2,0.1-3.9,0.1V51c0,1.1,0.2,1.8,0.5,2.1c0.4,0.3,1,0.5,2,0.6v0.7h-9.7V53.7z M109.7,43.9c0.9-0.6,1.4-1.9,1.4-3.8
		c0-1.3-0.2-2.4-0.7-3.2c-0.4-0.8-1.3-1.2-2.6-1.2c-0.6,0-1,0.1-1.2,0.2c-0.3,0.1-0.4,0.4-0.4,0.8v7.8
		C107.9,44.5,109.1,44.3,109.7,43.9z"/>
	<path class="st0" d="M116.8,54.4v-0.7c0.8,0,1.4-0.1,1.8-0.3c0.5-0.3,0.8-0.9,0.8-1.7V37.5c0-0.8-0.3-1.4-0.8-1.7
		c-0.3-0.2-0.9-0.3-1.7-0.3v-0.7h16.7v5.9h-0.7c-0.4-1.9-1-3.2-1.9-3.9c-0.9-0.7-2.5-1-4.8-1c-0.9,0-1.5,0.1-1.7,0.3
		c-0.2,0.2-0.4,0.6-0.4,1.1v6.8c1.7,0,2.8-0.3,3.4-0.9c0.6-0.6,1-1.8,1.3-3.4h0.7v9.9h-0.7c-0.2-1.7-0.6-2.8-1.3-3.5
		c-0.6-0.7-1.8-1-3.4-1v7.1c0,0.6,0.2,1,0.5,1.3c0.3,0.2,1,0.3,2,0.3c1.9,0,3.4-0.4,4.5-1.1c1.2-0.7,2.2-2.1,3.1-4.1h0.8l-1.2,6.1
		L116.8,54.4L116.8,54.4z"/>
	<path class="st0" d="M136.2,53.7c0.8,0,1.4-0.1,1.7-0.3c0.6-0.3,0.9-0.9,0.9-1.7V37.5c0-0.8-0.3-1.4-0.8-1.7
		c-0.3-0.2-0.9-0.3-1.7-0.3v-0.7h10.1v0.7c-1.2,0-2,0.2-2.4,0.5c-0.4,0.3-0.6,1-0.6,2.2v13.8c0,0.6,0.2,1.1,0.5,1.3
		c0.3,0.2,1,0.3,2,0.3c1.7,0,3.2-0.4,4.4-1.2c1.2-0.8,2.2-2.3,3.1-4.5h0.9l-1.2,6.6h-16.8V53.7z"/>
	<path class="st0" d="M155.5,54.4v-0.7c0.8,0,1.4-0.1,1.8-0.3c0.5-0.3,0.8-0.9,0.8-1.7V37.5c0-0.8-0.3-1.4-0.8-1.7
		c-0.3-0.2-0.9-0.3-1.7-0.3v-0.7h16.7v5.9h-0.7c-0.4-1.9-1-3.2-1.9-3.9c-0.9-0.7-2.5-1-4.8-1c-0.9,0-1.5,0.1-1.7,0.3
		s-0.4,0.6-0.4,1.1v6.8c1.7,0,2.8-0.3,3.4-0.9c0.6-0.6,1-1.8,1.3-3.4h0.7v9.9h-0.7c-0.2-1.7-0.6-2.8-1.3-3.5c-0.6-0.7-1.8-1-3.4-1
		v7.1c0,0.6,0.2,1,0.5,1.3c0.3,0.2,1,0.3,1.9,0.3c1.9,0,3.4-0.4,4.5-1.1s2.2-2.1,3.1-4.1h0.8l-1.2,6.1L155.5,54.4L155.5,54.4z"/>
	<path class="st0" d="M175.2,34.7h17.5l0,5.9h-0.8c-0.3-2.1-1.1-3.5-2.4-4.3c-0.7-0.4-1.8-0.6-3.3-0.7V51c0,1.1,0.2,1.8,0.6,2.1
		c0.4,0.4,1.1,0.5,2.3,0.5v0.7h-10.3v-0.7c1.1,0,1.9-0.2,2.3-0.5c0.4-0.4,0.6-1.1,0.6-2.1V35.6c-1.4,0-2.5,0.3-3.3,0.7
		c-1.4,0.8-2.2,2.2-2.4,4.3h-0.8L175.2,34.7z"/>
	<path class="st0" d="M194.3,54.4v-0.7c0.8,0,1.4-0.1,1.8-0.3c0.5-0.3,0.8-0.9,0.8-1.7V37.5c0-0.8-0.3-1.4-0.8-1.7
		c-0.3-0.2-0.9-0.3-1.7-0.3v-0.7H211v5.9h-0.7c-0.4-1.9-1-3.2-1.9-3.9c-0.9-0.7-2.5-1-4.8-1c-0.9,0-1.5,0.1-1.7,0.3
		c-0.2,0.2-0.4,0.6-0.4,1.1v6.8c1.7,0,2.8-0.3,3.4-0.9c0.6-0.6,1-1.8,1.3-3.4h0.7v9.9h-0.7c-0.2-1.7-0.6-2.8-1.3-3.5
		c-0.6-0.7-1.8-1-3.4-1v7.1c0,0.6,0.2,1,0.5,1.3c0.3,0.2,1,0.3,1.9,0.3c1.9,0,3.4-0.4,4.5-1.1c1.2-0.7,2.2-2.1,3.1-4.1h0.8l-1.2,6.1
		L194.3,54.4L194.3,54.4z"/>
	<path class="st0" d="M213.6,53.7c0.8,0,1.4-0.1,1.8-0.3c0.6-0.3,0.9-0.9,0.9-1.8V37.5c0-0.9-0.3-1.4-0.8-1.7
		c-0.3-0.2-0.9-0.3-1.8-0.3v-0.7h10.1v0.7c-0.9,0-1.5,0.1-1.9,0.3c-0.6,0.3-0.9,0.9-0.9,1.7v14.2c0,0.8,0.2,1.4,0.7,1.6
		c0.5,0.3,1.1,0.4,2,0.4v0.7h-10.1L213.6,53.7L213.6,53.7z"/>
	<path class="st0" d="M224.9,53.7c1-0.1,1.7-0.2,2-0.6c0.4-0.3,0.5-1,0.5-2.1V38.1c0-1.1-0.2-1.9-0.6-2.2c-0.3-0.2-0.9-0.4-1.9-0.5
		v-0.7h9.3c1.9,0,3.5,0.2,4.7,0.6c2.3,0.8,3.5,2.3,3.5,4.5c0,1.6-0.6,2.8-1.8,3.8c-0.9,0.7-1.9,1.1-3,1.3l6.2,8.3
		c0.2,0.2,0.3,0.4,0.5,0.5c0.2,0.1,0.4,0.1,0.7,0.1v0.7H239l-6.8-9.1h0V51c0,1,0.2,1.7,0.5,2.1c0.3,0.4,1,0.6,2,0.6v0.7h-9.8
		L224.9,53.7L224.9,53.7z M236.3,43.5c0.8-0.5,1.2-1.7,1.2-3.5c0-1.1-0.2-2-0.5-2.7c-0.5-1.1-1.5-1.7-2.9-1.7
		c-0.8,0-1.3,0.1-1.5,0.3c-0.2,0.2-0.4,0.5-0.4,1v7.4C234.1,44.3,235.5,44,236.3,43.5z"/>
	<path class="st0" d="M264,37.1c2,2,3,4.5,3,7.5c0,3.1-1,5.6-3,7.5c-1.9,1.9-4.4,2.9-7.3,2.9c-3.1,0-5.6-1-7.6-3.1
		c-1.8-2-2.7-4.3-2.7-7.1c0-3.1,1-5.6,2.9-7.6c1.9-2,4.4-3,7.5-3C259.6,34.2,262.1,35.2,264,37.1z M261.2,50.1
		c0.4-1.4,0.6-3.2,0.6-5.5c0-3.1-0.5-5.5-1.4-7c-0.9-1.6-2.2-2.4-3.8-2.4c-2.2,0-3.7,1.3-4.5,4c-0.4,1.4-0.6,3.2-0.6,5.5
		c0,2.3,0.2,4.1,0.6,5.5c0.8,2.6,2.3,3.9,4.5,3.9C258.9,54,260.4,52.7,261.2,50.1z"/>
</g>
<g>
	<path class="st0" d="M0,0v38.3c0,9.9,7.4,18,17,19l-3-14.1l-5.2-5.1H19h10.2l-5.2,5.2l-3,14c9.5-1,17-9.2,17-19V0H0z"/>
	<path class="st1" d="M26.5,10c-0.7-3.1-1.4-4-1.5-4.1l0,0l0,0c0,0,0,0,0,0c0,0-0.1,0-0.1,0.1c0,0,0.1,1.8,0,2.6
		c-0.1,1-0.2,2.2-1.1,4.4c-0.7,1.6-1.5,2.9-2.5,3.9c-0.3,0.2-0.5,0.4-0.6,0.5c1.7-2.4,2.2-4.7,2.3-5.4c0.1-1,0.7-4.1-0.1-7.5
		c-0.7-3.1-1.4-4-1.5-4.1l0,0l0,0c0,0,0,0,0,0c0,0-0.1,0-0.1,0.1c0,0,0.1,1.8,0,2.6c-0.1,1-0.2,2.8-1.4,4.9c-1,1.7-1.2,1.8-2.3,3.1
		c-1.2,1.3-1.1,0.9-2.3,2.3c-1.5,1.7-3.3,4.5-3.6,6.6c-0.5,3.5-0.6,7.1,1.8,12c0,0,0,0,0,0l0,0l0,0c0,0,0,0,0,0c0,0,0.1,0,0.1-0.1
		c0,0,0,0,0,0l0,0h0l0,0c0-0.1-0.3-2.5,0.3-4.8c0,0,0.7-3.5,3.7-6.4c-0.8,1.3-1.4,2.8-1.7,4.2c-0.8,3.4-0.3,9.9,3.5,13.4
		c0,0,0,0,0,0c0,0,0,0,0,0l0,0c0,0,0,0,0,0c0,0,0.1,0,0.1-0.1c0,0,0,0,0,0l0,0v0l0,0c0-0.1-1.3-3.4-1-6c0,0,0-3.2,3.7-6.2
		c3.7-3,4.7-7.2,4.8-8.2C26.9,16.7,27.2,13.4,26.5,10z"/>
</g>
</svg>
