<?xml version="1.0" encoding="utf-8"?>
<!-- Generator: Adobe Illustrator 24.0.3, SVG Export Plug-In . SVG Version: 6.00 Build 0)  -->
<svg version="1.1"
	 id="svg83" xmlns:cc="http://creativecommons.org/ns#" xmlns:dc="http://purl.org/dc/elements/1.1/" xmlns:inkscape="http://www.inkscape.org/namespaces/inkscape" xmlns:rdf="http://www.w3.org/1999/02/22-rdf-syntax-ns#" xmlns:sodipodi="http://sodipodi.sourceforge.net/DTD/sodipodi-0.dtd" xmlns:svg="http://www.w3.org/2000/svg"
	 xmlns="http://www.w3.org/2000/svg" xmlns:xlink="http://www.w3.org/1999/xlink" x="0px" y="0px" viewBox="0 0 203.6 39.1"
	 style="enable-background:new 0 0 203.6 39.1;" xml:space="preserve">
<style type="text/css">
	.st0{fill:#352378;}
	.st1{fill-rule:evenodd;clip-rule:evenodd;fill:#352378;}
	.st2{fill-rule:evenodd;clip-rule:evenodd;fill:#AFCA05;}
</style>
<sodipodi:namedview  bordercolor="#666666" borderopacity="1" gridtolerance="10" guidetolerance="10" id="namedview85" inkscape:current-layer="svg83" inkscape:cx="114.33" inkscape:cy="19.540001" inkscape:pageopacity="0" inkscape:pageshadow="2" inkscape:window-height="862" inkscape:window-maximized="0" inkscape:window-width="1307" inkscape:window-x="357" inkscape:window-y="234" inkscape:zoom="1.5306568" objecttolerance="10" pagecolor="#ffffff" showgrid="false">
	</sodipodi:namedview>
<path id="path14" inkscape:connector-curvature="0" class="st0" d="M23.5,13.1c1,0.6,2.2,0.7,3.4,0.4c1.3-0.3,2.2-0.9,2.7-1.8
	c0.5-0.9,0.6-1.9,0.4-3c-0.3-1.1-0.9-1.9-1.9-2.4c-0.9-0.6-2-0.7-3.3-0.4c-1.2,0.3-2.1,0.9-2.7,1.9c-0.6,0.9-0.7,1.9-0.4,2.9
	C22,11.8,22.6,12.5,23.5,13.1z M33.1,14.1c-0.9,1.8-2.9,2.8-4.9,3.4c-1.2,0.3-2.4,0.4-3.5,0.2c-1.1-0.2-2.5-0.7-4-1.6
	c-1.5-0.9-2.6-2.4-3.2-4.4s-0.4-3.8,0.4-5.2C18.7,5,19.7,4,20.7,3.3s2.1-1.2,3.2-1.4c0.7-0.2,1.5-0.3,2.2-0.2c0.7,0,1.4,0.1,2,0.3
	l-0.2-0.8l4.3-1l2.6,9.2c0.2,0.9,0.7,1.2,1.4,1.5s1.7,0.3,3,0l1.7-0.4c1-0.2,2.1,0.4,2.4,1.4c0.3,1-0.4,2.1-1.5,2.4h-0.1
	c-0.1,0-1.6,0.4-1.7,0.4c-2.7,0.6-4.8,0.5-6.2-0.2C33.4,14.4,33.3,14.3,33.1,14.1"/>
<path id="path16" inkscape:connector-curvature="0" class="st1" d="M13.1,11.7l-1.3-4.4C11.5,6.2,10.2,5.5,9,5.8
	C7.8,6.2,7.1,7.3,7.4,8.4l0,0l1.3,4.2l-6,1.4c-1.1,0.4-1.8,1.5-1.4,2.5c0.3,1.1,1.5,1.7,2.6,1.5l6-1.4l5,17.1
	c0.1,0.3,0.2,0.7,0.4,0.9c0.6,1.2,1.6,2.2,2.7,2.8c1.5,0.9,2.9,1.4,4,1.6c1.1,0.2,2.3,0.1,3.5-0.2c2-0.5,4-1.5,5.1-3.6
	c0.8-1.2,0.4-2.4-0.6-3c-1-0.6-2.3-0.3-3,0.7c-0.6,1-1.5,1.6-2.8,1.9c-1.2,0.3-2.4,0.2-3.4-0.4c-0.7-0.4-1.2-0.9-1.6-1.7
	c-1.7-5.7-3.4-11.4-5-17.1l2.3-0.5L15.4,11L13.1,11.7z"/>
<g id="g18" transform="matrix(0.54895861,0,0,-0.50801923,-40.048229,98.177154)">
	<path id="path20" inkscape:connector-curvature="0" class="st2" d="M114.8,137.7c3.2,0.3,6-2,6.3-5.1c0.3-3.2-2-6-5.1-6.3
		c-3.2-0.3-6,2-6.3,5.1C109.4,134.5,111.7,137.4,114.8,137.7"/>
	<path id="path22" inkscape:connector-curvature="0" class="st2" d="M111.9,165.2c17.7,1.9,33.6-11.5,35.6-29.8
		c0-0.4-0.3-0.8-0.8-0.8l-2.8-0.3c-0.4,0-0.8,0.3-0.9,0.7c-1.7,15.8-15.4,27.4-30.7,25.8c-0.5,0-0.9,0.3-0.9,0.7l-0.3,2.8
		C111.1,164.8,111.4,165.1,111.9,165.2"/>
	<path id="path24" inkscape:connector-curvature="0" class="st2" d="M129.8,133.5c0-0.4-0.3-0.8-0.7-0.8l-2.8-0.3
		c-0.4,0-0.8,0.2-0.9,0.7c-0.6,5.5-5.5,9.6-11.2,9c-0.5,0-0.9,0.3-0.9,0.7l-0.3,2.8c0,0.4,0.3,0.8,0.8,1
		C122.1,147.5,129,141.8,129.8,133.5"/>
	<path id="path26" inkscape:connector-curvature="0" class="st2" d="M113.4,151.6c-0.4,0-0.8,0.3-0.9,0.7l-0.3,2.8
		c0,0.4,0.3,0.8,0.7,1c12.8,1.5,24.5-8.3,25.9-21.6c0-0.5-0.3-0.9-0.8-0.9l-2.9-0.3c-0.5,0-0.9,0.3-0.9,0.7
		C133.1,144.7,123.8,152.7,113.4,151.6"/>
</g>
<path id="path28" inkscape:connector-curvature="0" class="st1" d="M54.2,1.9v3.9h2.5v2.8h-2.5v9.5h-2.8V8.6h-2.5V5.8h2.5V1.9H54.2z
	 M60.4,13l4-2.3c-0.2-0.1-0.4-0.2-0.6-0.2c-0.2,0-0.3,0-0.4-0.1c-0.1,0-0.2,0-0.3,0c-0.6,0-1.2,0.2-1.7,0.6c-0.5,0.4-0.8,0.9-1,1.5
	V13z M62.3,15.6c0.2,0.1,0.5,0.1,0.7,0.1c0.6,0,1.2-0.2,1.7-0.6c0.5-0.4,0.8-0.9,1-1.5c0.6,0.1,1.2,0.2,1.8,0.3
	c0.6,0.1,0.9,0.2,0.9,0.3c-0.2,1.2-0.8,2.2-1.9,3c-1,0.8-2.2,1.2-3.5,1.2c-0.5,0-1.1-0.1-2-0.4c-0.8-0.3-1.6-0.9-2.3-1.8
	c-0.7-1-1.1-2-1.1-3.3c0-0.5,0.1-1.1,0.3-1.9c0.2-0.8,0.8-1.6,1.8-2.4s2.2-1.2,3.5-1.2c0.5,0,1.3,0.2,2.5,0.5
	c1.2,0.4,2.1,1.5,2.6,3.4l-6.7,3.9C62,15.5,62.2,15.6,62.3,15.6L62.3,15.6z M69.6,1.9h2.8v16.3h-2.8V1.9z M76.8,13l4-2.3
	c-0.2-0.1-0.4-0.2-0.6-0.2s-0.3,0-0.4-0.1c-0.1,0-0.2,0-0.3,0c-0.6,0-1.2,0.2-1.7,0.6c-0.5,0.4-0.8,0.9-1,1.5V13z M78.7,15.6
	c0.2,0.1,0.5,0.1,0.7,0.1c0.6,0,1.2-0.2,1.7-0.6c0.5-0.4,0.8-0.9,1-1.5c0.6,0.1,1.2,0.2,1.8,0.3c0.6,0.1,0.9,0.2,0.9,0.3
	c-0.2,1.2-0.8,2.2-1.9,3c-1,0.8-2.2,1.2-3.5,1.2c-0.5,0-1.1-0.1-2-0.4c-0.8-0.3-1.6-0.9-2.3-1.8c-0.7-1-1.1-2-1.1-3.3
	c0-0.5,0.1-1.1,0.3-1.9c0.2-0.8,0.8-1.6,1.8-2.4s2.2-1.2,3.5-1.2c0.5,0,1.3,0.2,2.5,0.5c1.2,0.4,2.1,1.5,2.6,3.4L78,15.2
	C78.3,15.5,78.5,15.6,78.7,15.6L78.7,15.6z M85.9,12.2c0-1.6,0.5-2.8,1.6-3.5s2.1-1,3.2-1c0.8,0,1.6,0.1,2.1,0.4
	c0.6,0.2,1,0.5,1.4,0.8C94.5,8.5,95,8.2,95.5,8c0.6-0.2,1.2-0.3,1.8-0.3c1.4,0,2.6,0.4,3.6,1.1c1,0.8,1.5,1.9,1.5,3.3v6h-2.8v-6
	c0-0.6-0.2-1-0.6-1.3s-0.9-0.5-1.4-0.5c-0.6,0-1,0.2-1.4,0.5s-0.6,0.8-0.6,1.3v6h-2.8v-6c0-0.6-0.2-1-0.6-1.3s-0.9-0.5-1.4-0.5
	c-0.6,0-1,0.2-1.4,0.5s-0.6,0.7-0.6,1.3v6H86L85.9,12.2L85.9,12.2z M106.5,13l4-2.3c-0.2-0.1-0.4-0.2-0.6-0.2s-0.3,0-0.4-0.1
	c-0.1,0-0.2,0-0.3,0c-0.6,0-1.2,0.2-1.7,0.6c-0.5,0.4-0.8,0.9-1,1.5V13z M108.4,15.6c0.2,0.1,0.5,0.1,0.7,0.1c0.6,0,1.2-0.2,1.7-0.6
	c0.5-0.4,0.8-0.9,1-1.5c0.6,0.1,1.2,0.2,1.8,0.3c0.6,0.1,0.9,0.2,0.9,0.3c-0.2,1.2-0.8,2.2-1.9,3c-1,0.8-2.2,1.2-3.5,1.2
	c-0.5,0-1.1-0.1-2-0.4c-0.8-0.3-1.6-0.9-2.3-1.8c-0.7-1-1.1-2-1.1-3.3c0-0.5,0.1-1.1,0.3-1.9c0.2-0.8,0.8-1.6,1.8-2.4
	s2.2-1.2,3.5-1.2c0.5,0,1.3,0.2,2.5,0.5c1.2,0.4,2.1,1.5,2.6,3.4l-6.7,3.9C108.1,15.5,108.3,15.6,108.4,15.6L108.4,15.6z M120.6,1.9
	v3.9h2.5v2.8h-2.5v9.5h-2.8V8.6h-2.5V5.8h2.5V1.9H120.6z M129.5,7.7v2.7c-0.9,0-1.5,0.2-1.9,0.5s-0.6,0.8-0.6,1.4v5.9h-2.8v-5.9
	c0-1.5,0.4-2.7,1.2-3.4C126.2,8.1,127.6,7.7,129.5,7.7z M130.7,7.7h2.8v10.4h-2.8V7.7z M130.9,4.5c-0.3-0.3-0.4-0.7-0.4-1.1
	s0.1-0.8,0.4-1.1c0.3-0.3,0.7-0.5,1.2-0.5s0.9,0.2,1.2,0.5s0.4,0.7,0.4,1.1s-0.1,0.8-0.4,1.1C133,4.8,132.6,5,132.1,5
	S131.2,4.8,130.9,4.5z M138.2,14.9c0.5,0.5,1.2,0.8,2,0.8s1.5-0.3,1.9-0.8c0.5-0.5,0.7-1.1,0.7-1.9c0-0.7-0.2-1.4-0.7-1.9
	s-1.1-0.8-1.9-0.8c-0.8,0-1.4,0.3-1.9,0.8s-0.7,1.2-0.7,1.9C137.5,13.8,137.7,14.4,138.2,14.9z M142.8,7.8h2.8v10.5h-2.8v-0.4
	c-0.8,0.5-1.7,0.7-2.6,0.7c-0.8,0-1.5-0.1-2.2-0.4s-1.4-0.8-2.2-1.7c-0.8-0.8-1.2-2-1.2-3.4s0.4-2.5,1.1-3.3
	c0.8-0.8,1.5-1.4,2.2-1.7s1.5-0.4,2.2-0.4c0.5,0,0.9,0.1,1.4,0.2c0.4,0.1,0.8,0.3,1.2,0.5L142.8,7.8z"/>
<path id="path30" inkscape:connector-curvature="0" class="st1" d="M127.7,28.4c0.5,0.5,1.2,0.8,2,0.8s1.5-0.3,1.9-0.8
	c0.5-0.5,0.7-1.1,0.7-1.9c0-0.7-0.2-1.4-0.7-1.9s-1.1-0.8-1.9-0.8c-0.8,0-1.4,0.3-1.9,0.8c-0.5,0.5-0.7,1.2-0.7,1.9
	C127,27.3,127.2,27.9,127.7,28.4z M132.4,21.3h2.8v10.5h-2.8v-0.4c-0.8,0.5-1.7,0.7-2.6,0.7c-0.8,0-1.5-0.1-2.2-0.4
	s-1.4-0.8-2.2-1.7c-0.8-0.8-1.2-2-1.2-3.4s0.4-2.5,1.1-3.3c0.8-0.8,1.5-1.4,2.2-1.7c0.7-0.3,1.5-0.4,2.2-0.4c0.5,0,0.9,0.1,1.4,0.2
	c0.4,0.1,0.8,0.3,1.2,0.5L132.4,21.3z M142.3,31.9c-0.7,0-1.3-0.1-2-0.4v-2.8c0.3,0.2,0.6,0.4,0.9,0.4c0.3,0.1,0.7,0.1,1.2,0.1
	c0.8,0,1.4-0.2,1.8-0.7c0.4-0.5,0.6-1,0.6-1.7s-0.2-1.3-0.6-1.8c-0.4-0.5-1-0.7-1.8-0.7c-0.7,0-1.2,0.2-1.7,0.6s-0.8,0.9-0.9,1.5
	v11.4h-3.1V26.4c0-1.5,0.6-2.8,1.7-3.7c1.1-0.9,2.5-1.4,4-1.4c1.7,0,3.1,0.5,4,1.6c1,1.1,1.4,2.3,1.4,3.8c0,1.4-0.5,2.7-1.4,3.8
	C145.3,31.4,144,31.9,142.3,31.9L142.3,31.9z M148.7,15.4h2.8v16.3h-2.8V15.4z M153.8,21.2h2.8v10.4h-2.8V21.2z M154.1,18
	c-0.3-0.3-0.4-0.7-0.4-1.1s0.1-0.8,0.4-1.1c0.3-0.3,0.7-0.5,1.2-0.5s0.9,0.2,1.2,0.5c0.3,0.3,0.4,0.7,0.4,1.1s-0.1,0.8-0.4,1.1
	c-0.3,0.3-0.7,0.5-1.2,0.5S154.4,18.3,154.1,18L154.1,18z M165.6,27.8h3c-0.2,0.9-0.7,1.8-1.6,2.8c-0.8,0.9-2.1,1.4-3.7,1.4
	s-2.9-0.6-4-1.7c-1-1.1-1.5-2.4-1.5-3.8s0.5-2.7,1.5-3.8c1-1.1,2.3-1.7,3.9-1.7c0.8,0,1.5,0.1,2.2,0.4s1.2,0.7,1.7,1.1
	c0.4,0.5,0.8,0.9,1,1.3s0.4,0.8,0.5,1.3h-3l-0.3-0.5c-0.2-0.3-0.5-0.5-0.8-0.6s-0.7-0.2-1.1-0.2c-0.8,0-1.5,0.3-2,0.8
	s-0.7,1.2-0.7,1.9c0,0.7,0.2,1.3,0.5,1.7c0.4,0.4,0.7,0.7,1.1,0.8c0.4,0.2,0.8,0.2,1.2,0.2s0.8-0.1,1.1-0.2s0.6-0.3,0.8-0.6
	C165.4,28.2,165.6,28,165.6,27.8z M172.6,28.4c0.5,0.5,1.2,0.8,2,0.8s1.5-0.3,1.9-0.8c0.5-0.5,0.7-1.1,0.7-1.9
	c0-0.7-0.2-1.4-0.7-1.9s-1.1-0.8-1.9-0.8c-0.8,0-1.4,0.3-1.9,0.8s-0.7,1.2-0.7,1.9C171.9,27.3,172.1,27.9,172.6,28.4z M177.2,21.3
	h2.8v10.5h-2.8v-0.4c-0.8,0.5-1.7,0.7-2.6,0.7c-0.8,0-1.5-0.1-2.2-0.4s-1.4-0.8-2.2-1.7c-0.8-0.8-1.2-2-1.2-3.4s0.4-2.5,1.1-3.3
	c0.8-0.8,1.5-1.4,2.2-1.7c0.7-0.3,1.5-0.4,2.2-0.4c0.5,0,0.9,0.1,1.4,0.2c0.4,0.1,0.8,0.3,1.2,0.5L177.2,21.3z M186.6,21.2
	c0.7,0,1.3,0.1,2,0.4v2.8c-0.3-0.2-0.6-0.4-0.9-0.4c-0.3-0.1-0.7-0.1-1.2-0.1c-0.8,0-1.4,0.2-1.8,0.7c-0.4,0.5-0.6,1-0.6,1.7
	s0.2,1.3,0.6,1.8c0.4,0.5,1,0.7,1.8,0.7c0.7,0,1.2-0.2,1.7-0.6s0.8-0.9,0.9-1.5V15.4h3.1v11.4c0,1.5-0.6,2.8-1.7,3.7
	c-1.1,0.9-2.5,1.4-4,1.4c-1.7,0-3.1-0.5-4-1.6c-0.9-1-1.4-2.3-1.4-3.8s0.5-2.7,1.4-3.8C183.5,21.7,184.8,21.2,186.6,21.2L186.6,21.2
	z M196.2,28.4c0.5,0.5,1.2,0.8,2,0.8s1.5-0.3,1.9-0.8c0.5-0.5,0.7-1.1,0.7-1.9c0-0.7-0.2-1.4-0.7-1.9s-1.1-0.8-1.9-0.8
	c-0.8,0-1.4,0.3-1.9,0.8s-0.7,1.2-0.7,1.9C195.5,27.3,195.7,27.9,196.2,28.4L196.2,28.4z M200.9,21.3h2.8v10.5h-2.8v-0.4
	c-0.8,0.5-1.7,0.7-2.6,0.7c-0.8,0-1.5-0.1-2.2-0.4s-1.4-0.8-2.2-1.7c-0.8-0.8-1.2-2-1.2-3.4s0.4-2.5,1.1-3.3
	c0.8-0.8,1.5-1.4,2.2-1.7c0.7-0.3,1.5-0.4,2.2-0.4c0.5,0,0.9,0.1,1.4,0.2c0.4,0.1,0.8,0.3,1.2,0.5L200.9,21.3z"/>
</svg>
