<?xml version="1.0" encoding="UTF-8"?>
<svg width="141px" height="92px" viewBox="0 0 141 92" version="1.1" xmlns="http://www.w3.org/2000/svg" xmlns:xlink="http://www.w3.org/1999/xlink">
    <!-- Generator: Sketch 55.2 (78181) - https://sketchapp.com -->
    <title>atomos/logo-pos</title>
    <desc>Created with Sketch.</desc>
    <g id="atomos/logo-pos" stroke="none" stroke-width="1" fill="none" fill-rule="evenodd">
        <g id="Group-83">
            <polygon id="Fill-1" fill="#000068" points="110.2698 0.0004 49.3288 0.0024 49.3298 91.4114 140.7398 91.4114 140.7398 0.0004"></polygon>
            <g id="Group-82" transform="translate(0.000000, 6.411600)">
                <path d="M44.7277,1.2841 L44.7277,3.0411 C39.4567,3.4051 39.2747,3.5261 39.2747,6.9191 L39.2747,27.7611 C39.2747,31.3961 38.6687,34.6071 37.6397,36.7271 C34.8527,42.7251 28.4907,44.1191 22.4927,44.1191 C16.5547,44.1191 10.1937,42.6651 7.4067,36.7271 C6.3757,34.6671 5.8317,31.4561 5.7707,27.8821 L5.7707,6.9191 C5.7707,3.5261 5.6497,3.4051 0.3177,3.0411 L0.3177,1.2841 L17.2217,1.2841 L17.2217,3.0411 C11.9507,3.4051 11.7687,3.5261 11.7687,6.9191 L11.7687,26.5491 C11.7687,32.3051 12.6767,35.9401 14.4957,38.3631 C16.3737,40.7871 19.0397,41.9981 22.4927,41.9981 C26.0067,41.9981 28.6727,40.7871 30.5497,38.3631 C32.3687,35.9401 33.2767,32.3051 33.2767,26.5491 L33.2767,6.9191 C33.2767,3.5261 33.1557,3.4051 27.8247,3.0411 L27.8247,1.2841 L44.7277,1.2841 Z" id="Fill-2" fill="#000068"></path>
                <path d="M44.7277,1.2841 L44.7277,3.0411 C39.4567,3.4051 39.2747,3.5261 39.2747,6.9191 L39.2747,27.7611 C39.2747,31.3961 38.6687,34.6071 37.6397,36.7271 C34.8527,42.7251 28.4907,44.1191 22.4927,44.1191 C16.5547,44.1191 10.1937,42.6651 7.4067,36.7271 C6.3757,34.6671 5.8317,31.4561 5.7707,27.8821 L5.7707,6.9191 C5.7707,3.5261 5.6497,3.4051 0.3177,3.0411 L0.3177,1.2841 L17.2217,1.2841 L17.2217,3.0411 C11.9507,3.4051 11.7687,3.5261 11.7687,6.9191 L11.7687,26.5491 C11.7687,32.3051 12.6767,35.9401 14.4957,38.3631 C16.3737,40.7871 19.0397,41.9981 22.4927,41.9981 C26.0067,41.9981 28.6727,40.7871 30.5497,38.3631 C32.3687,35.9401 33.2767,32.3051 33.2767,26.5491 L33.2767,6.9191 C33.2767,3.5261 33.1557,3.4051 27.8247,3.0411 L27.8247,1.2841 L44.7277,1.2841 Z" id="Stroke-4" stroke="#000068" stroke-width="0.635"></path>
                <path d="M54.6632,30.79 L56.6012,30.79 C58.1162,37.576 61.8722,41.998 67.5672,41.998 C72.9602,41.998 76.2922,38.848 76.2922,33.638 C76.2922,28.246 70.5362,25.458 67.8702,24.429 L66.7802,24.004 C60.4192,21.763 55.3292,18.43 55.3292,12.069 C55.3292,4.071 61.8722,0.375 69.2652,0.375 C73.3842,0.375 77.5042,1.405 79.5632,3.041 L79.5632,11.584 L77.6852,11.584 C76.7162,5.465 73.8082,2.496 68.5982,2.496 C63.5092,2.496 60.8432,5.768 60.8432,10.19 C60.8432,13.826 64.2352,16.431 68.2952,17.946 L70.2332,18.673 C77.3222,21.278 82.1692,24.671 82.1692,31.82 C82.1692,38 77.9292,44.119 67.2042,44.119 C62.9642,44.119 57.9342,42.968 55.2682,40.484 L54.6632,30.79 Z" id="Fill-6" fill="#FFFFFF"></path>
                <path d="M54.6632,30.79 L56.6012,30.79 C58.1162,37.576 61.8722,41.998 67.5672,41.998 C72.9602,41.998 76.2922,38.848 76.2922,33.638 C76.2922,28.246 70.5362,25.458 67.8702,24.429 L66.7802,24.004 C60.4192,21.763 55.3292,18.43 55.3292,12.069 C55.3292,4.071 61.8722,0.375 69.2652,0.375 C73.3842,0.375 77.5042,1.405 79.5632,3.041 L79.5632,11.584 L77.6852,11.584 C76.7162,5.465 73.8082,2.496 68.5982,2.496 C63.5092,2.496 60.8432,5.768 60.8432,10.19 C60.8432,13.826 64.2352,16.431 68.2952,17.946 L70.2332,18.673 C77.3222,21.278 82.1692,24.671 82.1692,31.82 C82.1692,38 77.9292,44.119 67.2042,44.119 C62.9642,44.119 57.9342,42.968 55.2682,40.484 L54.6632,30.79 Z" id="Stroke-8" stroke="#FFFFFF" stroke-width="0.635"></path>
                <path d="M125.7912,12.1899 L123.9732,12.1899 C122.8212,5.0409 118.5202,2.4959 112.3412,2.4959 C101.0712,2.4359 97.1332,12.4319 97.1332,22.3689 C97.1332,29.6999 99.7382,41.9989 112.2202,41.9989 C120.1562,41.9989 123.2462,37.3939 124.9422,31.0929 L126.7602,31.0929 L125.9122,41.2109 C123.0032,42.7859 117.4302,44.1189 112.5832,44.1189 C105.7972,44.1189 99.8592,42.7259 96.1032,38.9689 C92.4682,35.3339 90.3472,29.6389 90.3472,22.5499 C90.3472,15.7039 92.4072,10.4939 95.8602,6.6159 C99.4962,2.5569 105.4942,0.3759 112.9462,0.3759 C118.4602,0.3759 123.0642,1.4659 125.7912,2.7379 L125.7912,12.1899 Z" id="Fill-10" fill="#FFFFFF"></path>
                <path d="M125.7912,12.1899 L123.9732,12.1899 C122.8212,5.0409 118.5202,2.4959 112.3412,2.4959 C101.0712,2.4359 97.1332,12.4319 97.1332,22.3689 C97.1332,29.6999 99.7382,41.9989 112.2202,41.9989 C120.1562,41.9989 123.2462,37.3939 124.9422,31.0929 L126.7602,31.0929 L125.9122,41.2109 C123.0032,42.7859 117.4302,44.1189 112.5832,44.1189 C105.7972,44.1189 99.8592,42.7259 96.1032,38.9689 C92.4682,35.3339 90.3472,29.6389 90.3472,22.5499 C90.3472,15.7039 92.4072,10.4939 95.8602,6.6159 C99.4962,2.5569 105.4942,0.3759 112.9462,0.3759 C118.4602,0.3759 123.0642,1.4659 125.7912,2.7379 L125.7912,12.1899 Z" id="Stroke-12" stroke="#FFFFFF" stroke-width="0.635"></path>
                <path d="M54.5714,52.1489 L54.5184,51.3419 L54.1414,51.2889 L54.0874,50.8579 L55.9174,50.8579 L55.8624,51.2889 L55.4854,51.3419 L55.4324,52.1489 L55.4324,54.6319 C55.4324,55.0709 55.4324,55.7799 55.5854,56.1829 C55.7914,56.7659 56.3744,57.0699 56.9734,57.0699 C57.4674,57.0699 58.0054,56.8559 58.2644,56.4249 C58.5344,55.9769 58.5074,55.3319 58.5074,54.8199 L58.5074,52.1489 L58.4534,51.3419 L58.0774,51.2889 L58.0224,50.8579 L59.6544,50.8579 L59.6004,51.2889 L59.2234,51.3419 L59.1714,52.1489 L59.1714,54.5869 C59.1714,55.2949 59.2064,55.9679 58.8114,56.5949 C58.3644,57.3039 57.7094,57.5009 56.9114,57.5009 C56.2124,57.5009 55.5124,57.3389 55.0474,56.7659 C54.6074,56.2279 54.5714,55.4929 54.5714,54.8199 L54.5714,52.1489 Z" id="Fill-14" fill="#FFFFFF"></path>
                <polygon id="Fill-16" fill="#FFFFFF" points="61.214 52.1489 61.16 51.3419 60.784 51.2889 60.73 50.8579 61.886 50.8579 65.284 56.1379 65.284 52.1489 65.23 51.3419 64.854 51.2889 64.8 50.8579 66.378 50.8579 66.323 51.2889 65.947 51.3419 65.894 52.1489 65.894 57.4199 65.158 57.4199 61.823 52.2299 61.823 56.0479 61.878 56.8559 62.254 56.9089 62.308 57.3389 60.73 57.3389 60.784 56.9089 61.16 56.8559 61.214 56.0479"></polygon>
                <polygon id="Fill-18" fill="#FFFFFF" points="68.0451 52.1489 67.9911 51.3419 67.6141 51.2889 67.5611 50.8579 69.3901 50.8579 69.3351 51.2889 68.9591 51.3419 68.9051 52.1489 68.9051 56.0479 68.9591 56.8559 69.3351 56.9089 69.3901 57.3389 67.5611 57.3389 67.6141 56.9089 67.9911 56.8559 68.0451 56.0479"></polygon>
                <polygon id="Fill-20" fill="#FFFFFF" points="70.8859 52.0502 70.5639 51.3422 70.2939 51.2882 70.2409 50.8582 72.0249 50.8582 71.9709 51.2882 71.5399 51.3422 73.3609 56.0752 75.1089 51.3422 74.6789 51.2882 74.6239 50.8582 76.0049 50.8582 75.9509 51.2882 75.6829 51.3422 75.2879 52.2562 73.3879 57.4202 72.9569 57.4202"></polygon>
                <polygon id="Fill-22" fill="#FFFFFF" points="76.7941 57.3393 76.8471 56.9093 77.2241 56.8553 77.2781 56.0483 77.2781 52.1493 77.2241 51.3423 76.8471 51.2883 76.7941 50.8583 80.8991 50.8583 80.8451 51.8353 80.4151 51.7813 80.3611 51.3423 79.4391 51.2883 78.1381 51.2883 78.1381 53.7263 80.4151 53.7263 80.3611 54.2113 79.2761 54.1573 78.1381 54.1573 78.1381 56.0483 78.1921 56.8553 79.6621 56.8553 80.5501 56.8013 80.6041 56.3173 81.0341 56.2633 81.0871 57.3393"></polygon>
                <path d="M83.2921,54.4799 L84.0721,54.4799 L85.7941,57.3389 L87.1031,57.3389 L87.0491,56.9089 L86.6731,56.8549 L86.1441,56.1289 L84.9251,54.2919 C85.7491,54.0219 86.2781,53.3409 86.2781,52.4629 C86.2781,51.9429 86.0811,51.4679 85.6421,51.1629 C85.2561,50.8939 84.7631,50.8579 84.3061,50.8579 L81.9481,50.8579 L82.0021,51.2889 L82.3781,51.3419 L82.4331,52.1489 L82.4331,56.0479 L82.3781,56.8549 L82.0021,56.9089 L81.9481,57.3389 L83.6691,57.3389 L83.6151,56.9089 L83.2921,56.8549 L83.2921,54.4799 Z M83.2921,54.0489 L83.2921,51.3959 C83.5441,51.3339 83.7941,51.2889 84.0551,51.2889 C84.8431,51.2889 85.3631,51.6739 85.3631,52.4989 C85.3631,52.9559 85.2371,53.4309 84.8701,53.7269 C84.4851,54.0409 83.9461,54.0489 83.4631,54.0489 L83.2921,54.0489 Z" id="Fill-24" fill="#FFFFFF"></path>
                <path d="M88.0255,56.1201 L88.4565,56.1741 L88.5095,56.6131 C88.8775,56.8551 89.2905,57.0701 89.7375,57.0701 C90.4635,57.0701 91.0555,56.6041 91.0555,55.8511 C91.0555,55.0261 90.4365,54.7401 89.8095,54.3811 C89.0305,53.9421 88.0795,53.4401 88.0795,52.4181 C88.0795,51.9521 88.2865,51.5131 88.6175,51.1901 C88.9855,50.8311 89.4325,50.6971 89.9445,50.6971 C90.4995,50.6971 91.0645,50.7951 91.5925,50.9661 L91.5405,51.9701 L91.1095,51.9161 L91.0555,51.4761 C90.7145,51.2701 90.3295,51.1271 89.9345,51.1271 C89.3425,51.1271 88.9215,51.6381 88.9215,52.2121 C88.9215,52.9201 89.5045,53.2241 90.0425,53.5291 C90.4285,53.7531 90.8935,54.0141 91.2435,54.2831 C91.6825,54.6231 91.9165,55.0801 91.9165,55.6361 C91.9165,56.8101 90.9035,57.5001 89.8095,57.5001 C89.1905,57.5001 88.5635,57.3661 87.9715,57.2051 L88.0255,56.1201 Z" id="Fill-26" fill="#FFFFFF"></path>
                <polygon id="Fill-28" fill="#FFFFFF" points="93.4484 52.1489 93.3954 51.3419 93.0184 51.2889 92.9654 50.8579 94.7944 50.8579 94.7394 51.2889 94.3634 51.3419 94.3094 52.1489 94.3094 56.0479 94.3634 56.8559 94.7394 56.9089 94.7944 57.3389 92.9654 57.3389 93.0184 56.9089 93.3954 56.8559 93.4484 56.0479"></polygon>
                <path d="M95.9855,57.3393 L98.5945,57.3393 C99.5445,57.3393 100.3505,57.1513 101.0055,56.4073 C101.5965,55.7353 101.8215,54.8203 101.8215,53.9503 C101.8215,53.1353 101.5965,52.2383 101.0055,51.6473 C100.3785,51.0103 99.5805,50.8583 98.7195,50.8583 L95.9855,50.8583 L96.0405,51.2883 L96.4165,51.3423 L96.4695,52.1493 L96.4695,56.0483 L96.4165,56.8553 L96.0405,56.9093 L95.9855,57.3393 Z M97.3835,56.8013 L97.3305,56.0483 L97.3305,51.2883 L97.9135,51.2883 C98.7115,51.2883 99.4815,51.3243 100.0905,51.8893 C100.6925,52.4443 100.9075,53.2243 100.9075,54.0133 C100.9075,54.7033 100.7375,55.5013 100.2975,56.0483 C99.7865,56.6933 99.0965,56.8553 98.3075,56.8553 L97.3835,56.8013 Z" id="Fill-30" fill="#FFFFFF"></path>
                <path d="M103.964,55.394 L106.68,55.394 L107.272,56.855 L106.841,56.909 L106.788,57.339 L108.58,57.339 L108.526,56.909 L108.258,56.855 L107.917,56.147 L105.783,50.75 L105.264,50.75 L103.229,55.941 L102.79,56.855 L102.521,56.909 L102.467,57.339 L103.902,57.339 L103.847,56.909 L103.417,56.855 L103.964,55.394 Z M104.134,54.964 L105.318,51.934 L106.51,54.964 L104.134,54.964 Z" id="Fill-32" fill="#FFFFFF"></path>
                <path d="M109.3331,57.3393 L111.9421,57.3393 C112.8921,57.3393 113.6981,57.1513 114.3531,56.4073 C114.9441,55.7353 115.1691,54.8203 115.1691,53.9503 C115.1691,53.1353 114.9441,52.2383 114.3531,51.6473 C113.7261,51.0103 112.9281,50.8583 112.0671,50.8583 L109.3331,50.8583 L109.3871,51.2883 L109.7631,51.3423 L109.8171,52.1493 L109.8171,56.0483 L109.7631,56.8553 L109.3871,56.9093 L109.3331,57.3393 Z M110.7311,56.8013 L110.6781,56.0483 L110.6781,51.2883 L111.2611,51.2883 C112.0581,51.2883 112.8291,51.3243 113.4381,51.8893 C114.0401,52.4443 114.2551,53.2243 114.2551,54.0133 C114.2551,54.7033 114.0841,55.5013 113.6451,56.0483 C113.1341,56.6933 112.4441,56.8553 111.6551,56.8553 L110.7311,56.8013 Z" id="Fill-34" fill="#FFFFFF"></path>
                <polygon id="Fill-36" fill="#FFFFFF" points="116.298 57.3393 116.353 56.9093 116.729 56.8553 116.782 56.0483 116.782 52.1493 116.729 51.3423 116.353 51.2883 116.298 50.8583 120.403 50.8583 120.351 51.8353 119.92 51.7813 119.866 51.3423 118.943 51.2883 117.644 51.2883 117.644 53.7263 119.92 53.7263 119.866 54.2113 118.781 54.1573 117.644 54.1573 117.644 56.0483 117.696 56.8553 119.167 56.8553 120.054 56.8013 120.109 56.3173 120.538 56.2633 120.593 57.3393"></polygon>
                <path d="M54.1954,68.3036 L56.8034,68.3036 C57.7544,68.3036 58.5604,68.1156 59.2164,67.3706 C59.8064,66.6986 60.0304,65.7846 60.0304,64.9146 C60.0304,64.0986 59.8064,63.2026 59.2164,62.6116 C58.5884,61.9746 57.7904,61.8226 56.9284,61.8226 L54.1954,61.8226 L54.2494,62.2526 L54.6264,62.3066 L54.6784,63.1136 L54.6784,67.0126 L54.6264,67.8196 L54.2494,67.8726 L54.1954,68.3036 Z M55.5934,67.7656 L55.5404,67.0126 L55.5404,62.2526 L56.1224,62.2526 C56.9214,62.2526 57.6914,62.2886 58.3004,62.8526 C58.9014,63.4086 59.1164,64.1886 59.1164,64.9776 C59.1164,65.6676 58.9464,66.4656 58.5074,67.0126 C57.9964,67.6576 57.3054,67.8196 56.5164,67.8196 L55.5934,67.7656 Z" id="Fill-38" fill="#FFFFFF"></path>
                <polygon id="Fill-40" fill="#FFFFFF" points="61.1603 68.3036 61.2143 67.8726 61.5913 67.8196 61.6443 67.0126 61.6443 63.1136 61.5913 62.3066 61.2143 62.2526 61.1603 61.8226 65.2663 61.8226 65.2123 62.7996 64.7823 62.7456 64.7273 62.3066 63.8053 62.2526 62.5053 62.2526 62.5053 64.6906 64.7823 64.6906 64.7273 65.1746 63.6433 65.1206 62.5053 65.1206 62.5053 67.0126 62.5583 67.8196 64.0283 67.8196 64.9173 67.7656 64.9703 67.2816 65.4003 67.2276 65.4543 68.3036"></polygon>
                <path d="M69.1749,67.0844 L69.6049,67.1384 L69.6579,67.5774 C70.0269,67.8194 70.4389,68.0344 70.8859,68.0344 C71.6129,68.0344 72.2039,67.5684 72.2039,66.8154 C72.2039,65.9904 71.5849,65.7044 70.9579,65.3454 C70.1789,64.9064 69.2279,64.4044 69.2279,63.3824 C69.2279,62.9164 69.4349,62.4764 69.7659,62.1534 C70.1339,61.7954 70.5809,61.6614 71.0929,61.6614 C71.6489,61.6614 72.2129,61.7594 72.7419,61.9294 L72.6889,62.9344 L72.2579,62.8804 L72.2039,62.4404 C71.8629,62.2344 71.4779,62.0914 71.0829,62.0914 C70.4909,62.0914 70.0709,62.6024 70.0709,63.1754 C70.0709,63.8844 70.6539,64.1884 71.1909,64.4934 C71.5769,64.7174 72.0429,64.9784 72.3929,65.2464 C72.8309,65.5874 73.0649,66.0444 73.0649,66.6004 C73.0649,67.7744 72.0519,68.4644 70.9579,68.4644 C70.3389,68.4644 69.7119,68.3304 69.1199,68.1684 L69.1749,67.0844 Z" id="Fill-42" fill="#FFFFFF"></path>
                <path d="M75.1261,66.3583 L77.8431,66.3583 L78.4351,67.8193 L78.0041,67.8733 L77.9501,68.3033 L79.7431,68.3033 L79.6881,67.8733 L79.4211,67.8193 L79.0791,67.1113 L76.9461,61.7143 L76.4271,61.7143 L74.3921,66.9053 L73.9521,67.8193 L73.6831,67.8733 L73.6301,68.3033 L75.0641,68.3033 L75.0101,67.8733 L74.5791,67.8193 L75.1261,66.3583 Z M75.2961,65.9283 L76.4801,62.8983 L77.6731,65.9283 L75.2961,65.9283 Z" id="Fill-44" fill="#FFFFFF"></path>
                <polygon id="Fill-46" fill="#FFFFFF" points="80.9796 63.1132 80.9266 62.3062 80.5496 62.2522 80.4956 61.8222 81.6526 61.8222 85.0496 67.1022 85.0496 63.1132 84.9956 62.3062 84.6196 62.2522 84.5656 61.8222 86.1436 61.8222 86.0886 62.2522 85.7126 62.3062 85.6596 63.1132 85.6596 68.3842 84.9246 68.3842 81.5886 63.1942 81.5886 67.0122 81.6436 67.8192 82.0196 67.8732 82.0736 68.3032 80.4956 68.3032 80.5496 67.8732 80.9266 67.8192 80.9796 67.0122"></polygon>
                <polygon id="Fill-48" fill="#FFFFFF" points="89.38 62.2524 88.249 62.2524 87.542 62.3064 87.487 62.7994 87.058 62.8534 87.004 61.8224 92.615 61.8224 92.562 62.8534 92.132 62.7994 92.077 62.3064 91.369 62.2524 90.239 62.2524 90.239 67.0124 90.294 67.8194 90.67 67.8734 90.724 68.3034 88.896 68.3034 88.948 67.8734 89.325 67.8194 89.38 67.0124"></polygon>
                <polygon id="Fill-50" fill="#FFFFFF" points="93.9689 63.1132 93.9149 62.3062 93.5379 62.2522 93.4859 61.8222 95.3139 61.8222 95.2599 62.2522 94.8839 62.3062 94.8289 63.1132 94.8289 67.0122 94.8839 67.8192 95.2599 67.8732 95.3139 68.3032 93.4859 68.3032 93.5379 67.8732 93.9149 67.8192 93.9689 67.0122"></polygon>
                <path d="M97.5187,66.3583 L100.2357,66.3583 L100.8277,67.8193 L100.3957,67.8733 L100.3427,68.3033 L102.1357,68.3033 L102.0807,67.8733 L101.8127,67.8193 L101.4717,67.1113 L99.3387,61.7143 L98.8187,61.7143 L96.7847,66.9053 L96.3447,67.8193 L96.0757,67.8733 L96.0217,68.3033 L97.4567,68.3033 L97.4017,67.8733 L96.9717,67.8193 L97.5187,66.3583 Z M97.6887,65.9283 L98.8727,62.8983 L100.0647,65.9283 L97.6887,65.9283 Z" id="Fill-52" fill="#FFFFFF"></path>
                <path d="M107.1906,66.2236 L106.6986,66.1696 L106.6436,65.7396 L108.5366,65.7396 L108.4816,66.1696 L108.1056,66.2236 L108.0516,67.1466 L108.0516,68.1416 C107.3706,68.3216 106.6806,68.4646 105.9716,68.4646 C103.9106,68.4646 102.8356,66.9766 102.8356,65.0226 C102.8356,64.2156 103.0586,63.2746 103.5786,62.6386 C104.1696,61.9206 105.0026,61.6616 105.9096,61.6616 C106.6536,61.6616 107.3976,61.7866 108.1056,61.9836 L108.0516,63.1216 L107.6216,63.0686 L107.5676,62.5756 C107.0746,62.2976 106.5636,62.0916 105.9896,62.0916 C104.3486,62.0916 103.7496,63.7406 103.7496,65.1306 C103.7496,66.6716 104.5906,68.0076 106.2586,68.0076 C106.5726,68.0076 106.8856,67.9536 107.1906,67.8726 L107.1906,66.2236 Z" id="Fill-54" fill="#FFFFFF"></path>
                <path d="M112.507,68.4648 C113.421,68.4648 114.219,68.1418 114.802,67.4248 C115.349,66.7528 115.501,65.9098 115.501,65.0678 C115.501,64.1708 115.33,63.3008 114.73,62.6108 C114.148,61.9478 113.376,61.6608 112.507,61.6608 C111.593,61.6608 110.786,61.9838 110.212,62.7008 C109.665,63.3728 109.503,64.2158 109.503,65.0678 C109.503,65.9368 109.665,66.7888 110.247,67.4698 C110.821,68.1598 111.619,68.4648 112.507,68.4648 M112.507,68.0348 C110.902,68.0348 110.418,66.3848 110.418,65.0678 C110.418,63.7408 110.902,62.0908 112.507,62.0908 C114.103,62.0908 114.587,63.7408 114.587,65.0678 C114.587,66.3848 114.103,68.0348 112.507,68.0348" id="Fill-56" fill="#FFFFFF"></path>
                <path d="M54.1954,79.2675 L56.8034,79.2675 C57.7544,79.2675 58.5604,79.0805 59.2164,78.3355 C59.8064,77.6635 60.0304,76.7475 60.0304,75.8785 C60.0304,75.0635 59.8064,74.1665 59.2164,73.5755 C58.5884,72.9395 57.7904,72.7875 56.9284,72.7875 L54.1954,72.7875 L54.2494,73.2165 L54.6264,73.2705 L54.6784,74.0785 L54.6784,77.9765 L54.6264,78.7835 L54.2494,78.8375 L54.1954,79.2675 Z M55.5934,78.7305 L55.5404,77.9765 L55.5404,73.2165 L56.1224,73.2165 C56.9214,73.2165 57.6914,73.2515 58.3004,73.8175 C58.9014,74.3725 59.1164,75.1535 59.1164,75.9415 C59.1164,76.6325 58.9464,77.4295 58.5074,77.9765 C57.9964,78.6225 57.3054,78.7835 56.5164,78.7835 L55.5934,78.7305 Z" id="Fill-58" fill="#FFFFFF"></path>
                <polygon id="Fill-60" fill="#FFFFFF" points="61.1603 79.2675 61.2143 78.8375 61.5913 78.7835 61.6443 77.9765 61.6443 74.0785 61.5913 73.2705 61.2143 73.2165 61.1603 72.7875 65.2663 72.7875 65.2123 73.7635 64.7823 73.7095 64.7273 73.2705 63.8053 73.2165 62.5053 73.2165 62.5053 75.6555 64.7823 75.6555 64.7273 76.1385 63.6433 76.0855 62.5053 76.0855 62.5053 77.9765 62.5583 78.7835 64.0283 78.7835 64.9173 78.7305 64.9703 78.2465 65.4003 78.1915 65.4543 79.2675"></polygon>
                <path d="M74.2482,72.9472 L74.1942,73.9782 L73.7642,73.9252 L73.7102,73.4682 C73.2622,73.2082 72.7962,73.0552 72.2942,73.0552 C71.5402,73.0552 70.9312,73.3692 70.5362,74.0232 C70.1792,74.6152 70.0082,75.4042 70.0082,76.0932 C70.0082,77.5822 70.8332,78.9722 72.4642,78.9722 C73.0922,78.9722 73.8002,78.7652 74.3102,78.3982 L74.3102,78.9092 C73.7102,79.2952 72.9832,79.4292 72.2842,79.4292 C71.3442,79.4292 70.5362,79.1952 69.9092,78.4522 C69.3092,77.7532 69.0942,76.8922 69.0942,75.9862 C69.0942,75.1622 69.3272,74.2032 69.8742,73.5662 C70.4912,72.8402 71.3252,72.6252 72.2492,72.6252 C72.9312,72.6252 73.4592,72.7422 74.1132,72.9122 L74.2482,72.9472 Z" id="Fill-62" fill="#FFFFFF"></path>
                <path d="M78.4435,79.4296 C79.3575,79.4296 80.1555,79.1066 80.7375,78.3886 C81.2845,77.7166 81.4365,76.8746 81.4365,76.0316 C81.4365,75.1346 81.2665,74.2656 80.6675,73.5756 C80.0835,72.9116 79.3125,72.6246 78.4435,72.6246 C77.5285,72.6246 76.7215,72.9476 76.1485,73.6646 C75.6015,74.3376 75.4405,75.1796 75.4405,76.0316 C75.4405,76.9016 75.6015,77.7526 76.1845,78.4336 C76.7575,79.1246 77.5555,79.4296 78.4435,79.4296 M78.4435,78.9986 C76.8395,78.9986 76.3545,77.3496 76.3545,76.0316 C76.3545,74.7046 76.8395,73.0556 78.4435,73.0556 C80.0385,73.0556 80.5225,74.7046 80.5225,76.0316 C80.5225,77.3496 80.0385,78.9986 78.4435,78.9986" id="Fill-64" fill="#FFFFFF"></path>
                <polygon id="Fill-66" fill="#FFFFFF" points="83.714 77.9765 83.768 78.7835 84.144 78.8375 84.198 79.2675 82.567 79.2675 82.62 78.8375 82.997 78.7835 83.051 77.9765 83.051 74.0785 82.997 73.2705 82.62 73.2165 82.567 72.7875 84.117 72.7875 85.937 77.5555 87.829 72.7875 89.155 72.7875 89.102 73.2165 88.726 73.2705 88.671 74.0785 88.671 77.9765 88.726 78.7835 89.102 78.8375 89.155 79.2675 87.38 79.2675 87.435 78.8375 87.811 78.7835 87.864 77.9765 87.864 74.0335 87.847 74.0335 85.974 78.7835 85.542 78.7835 83.732 74.0335 83.714 74.0335"></polygon>
                <path d="M91.6828,76.5693 L91.8448,76.5693 C92.4898,76.5693 93.2338,76.5153 93.8078,76.1933 C94.4348,75.8343 94.7128,75.1793 94.7128,74.4713 C94.7128,73.2893 93.9328,72.7873 92.8218,72.7873 L90.3388,72.7873 L90.3918,73.2163 L90.7688,73.2703 L90.8228,74.0783 L90.8228,77.9763 L90.7688,78.7833 L90.3918,78.8383 L90.3388,79.2673 L92.2848,79.2673 L92.2298,78.8383 L91.6828,78.7833 L91.6828,76.5693 Z M91.6828,76.1383 L91.6828,73.3243 C91.9428,73.2613 92.2038,73.2163 92.4628,73.2163 C93.3328,73.2163 93.7988,73.5843 93.7988,74.4803 C93.7988,74.9653 93.6458,75.4663 93.2698,75.7813 C92.8488,76.1313 92.3728,76.1383 91.8628,76.1383 L91.6828,76.1383 Z" id="Fill-68" fill="#FFFFFF"></path>
                <path d="M98.4953,79.4296 C99.4103,79.4296 100.2083,79.1066 100.7903,78.3886 C101.3373,77.7166 101.4893,76.8746 101.4893,76.0316 C101.4893,75.1346 101.3193,74.2656 100.7193,73.5756 C100.1363,72.9116 99.3653,72.6246 98.4953,72.6246 C97.5813,72.6246 96.7743,72.9476 96.2003,73.6646 C95.6543,74.3376 95.4933,75.1796 95.4933,76.0316 C95.4933,76.9016 95.6543,77.7526 96.2373,78.4336 C96.8103,79.1246 97.6083,79.4296 98.4953,79.4296 M98.4953,78.9986 C96.8913,78.9986 96.4073,77.3496 96.4073,76.0316 C96.4073,74.7046 96.8913,73.0556 98.4953,73.0556 C100.0913,73.0556 100.5753,74.7046 100.5753,76.0316 C100.5753,77.3496 100.0913,78.9986 98.4953,78.9986" id="Fill-70" fill="#FFFFFF"></path>
                <path d="M102.6456,78.0488 L103.0766,78.1028 L103.1296,78.5408 C103.4976,78.7828 103.9106,78.9988 104.3586,78.9988 C105.0846,78.9988 105.6756,78.5328 105.6756,77.7788 C105.6756,76.9548 105.0576,76.6678 104.4296,76.3098 C103.6496,75.8698 102.7006,75.3678 102.7006,74.3458 C102.7006,73.8808 102.9066,73.4418 103.2376,73.1178 C103.6056,72.7598 104.0536,72.6248 104.5646,72.6248 C105.1206,72.6248 105.6846,72.7238 106.2136,72.8948 L106.1606,73.8988 L105.7296,73.8438 L105.6756,73.4048 C105.3346,73.1988 104.9506,73.0558 104.5556,73.0558 C103.9636,73.0558 103.5416,73.5668 103.5416,74.1408 C103.5416,74.8478 104.1246,75.1528 104.6636,75.4578 C105.0476,75.6818 105.5146,75.9418 105.8646,76.2108 C106.3036,76.5518 106.5366,77.0088 106.5366,77.5648 C106.5366,78.7378 105.5236,79.4298 104.4296,79.4298 C103.8116,79.4298 103.1846,79.2948 102.5926,79.1328 L102.6456,78.0488 Z" id="Fill-72" fill="#FFFFFF"></path>
                <polygon id="Fill-74" fill="#FFFFFF" points="109.6378 73.2168 108.5088 73.2168 107.7998 73.2708 107.7468 73.7638 107.3168 73.8178 107.2628 72.7868 112.8738 72.7868 112.8208 73.8178 112.3898 73.7638 112.3368 73.2708 111.6278 73.2168 110.4988 73.2168 110.4988 77.9768 110.5518 78.7828 110.9288 78.8378 110.9828 79.2678 109.1538 79.2678 109.2078 78.8378 109.5838 78.7828 109.6378 77.9768"></polygon>
                <polygon id="Fill-76" fill="#FFFFFF" points="113.7433 79.2675 113.7983 78.8375 114.1743 78.7835 114.2273 77.9765 114.2273 74.0785 114.1743 73.2705 113.7983 73.2165 113.7433 72.7875 117.8483 72.7875 117.7963 73.7635 117.3653 73.7095 117.3113 73.2705 116.3883 73.2165 115.0893 73.2165 115.0893 75.6555 117.3653 75.6555 117.3113 76.1385 116.2263 76.0855 115.0893 76.0855 115.0893 77.9765 115.1413 78.7835 116.6123 78.7835 117.4993 78.7305 117.5543 78.2465 117.9833 78.1915 118.0383 79.2675"></polygon>
                <polygon id="Fill-78" fill="#FFFFFF" points="119.382 74.0781 119.328 73.2701 118.952 73.2171 118.898 72.7871 120.727 72.7871 120.673 73.2171 120.296 73.2701 120.243 74.0781 120.243 77.9761 120.306 78.7831 121.767 78.7831 122.681 78.7301 122.736 78.1291 123.165 78.0761 123.219 79.2671 118.898 79.2671 118.952 78.8381 119.328 78.7831 119.382 77.9761"></polygon>
                <path d="M125.0382,77.3222 L127.7552,77.3222 L128.3462,78.7832 L127.9162,78.8382 L127.8622,79.2672 L129.6552,79.2672 L129.6012,78.8382 L129.3322,78.7832 L128.9912,78.0762 L126.8582,72.6792 L126.3382,72.6792 L124.3042,77.8692 L123.8642,78.7832 L123.5952,78.8382 L123.5412,79.2672 L124.9762,79.2672 L124.9222,78.8382 L124.4912,78.7832 L125.0382,77.3222 Z M125.2092,76.8922 L126.3922,73.8622 L127.5842,76.8922 L125.2092,76.8922 Z" id="Fill-80" fill="#FFFFFF"></path>
            </g>
        </g>
    </g>
</svg>