M48
; DRILL file {KiCad (5.1.9)-1} date 04/20/21 13:04:09
; FORMAT={-:-/ absolute / inch / decimal}
; #@! TF.CreationDate,2021-04-20T13:04:09+03:00
; #@! TF.GenerationSoftware,Kicad,Pcbnew,(5.1.9)-1
FMAT,2
INCH
T1C0.0157
T2C0.0236
T3C0.0335
T4C0.0400
T5C0.0866
%
G90
G05
T1
X0.0276Y-1.0551
X0.0315Y-0.2677
X0.0315Y-0.8858
X0.1181Y-0.8622
X0.1654Y-0.2677
X0.1772Y-0.0669
X0.2126Y-1.1457
X0.2283Y-0.5079
X0.2283Y-0.8858
X0.2374Y-0.8375
X0.2431Y-0.7244
X0.2666Y-0.8082
X0.2795Y-1.0394
X0.2844Y-0.7244
X0.2953Y-0.2677
X0.315Y-0.6654
X0.3346Y-0.0669
X0.3937Y-0.685
X0.4016Y-1.126
X0.439Y-0.8386
X0.499Y-0.5709
X0.5276Y-0.4961
X0.5391Y-0.9577
X0.5399Y-0.7416
X0.624Y-0.6575
X0.6535Y-0.0669
X0.7008Y-1.1417
X0.7126Y-0.2008
X0.7382Y-0.7717
X0.7402Y-0.4508
X0.7402Y-0.5984
X0.7402Y-0.878
X0.7402Y-0.9803
X0.7421Y-0.6772
X0.7638Y-0.2677
X0.8307Y-0.0669
X0.8622Y-1.122
X0.8661Y-0.874
X0.874Y-0.8268
X0.8937Y-0.5591
X0.8937Y-0.685
X0.8976Y-0.3937
X0.9094Y-0.8268
X0.9606Y-0.3307
X0.9606Y-0.3661
X1.0118Y-0.2165
X1.0315Y-0.5984
X1.0866Y-0.1102
X1.0866Y-0.3268
X1.0945Y-0.563
X1.0945Y-0.685
X1.0965Y-0.437
X1.0984Y-0.8268
X1.0984Y-1.1811
X1.1299Y-0.1142
X1.1339Y-0.3268
X1.1457Y-0.2047
X1.1732Y-1.1181
X1.2717Y-0.0354
X1.2717Y-0.685
X1.2717Y-0.8268
X1.2795Y-0.563
X1.2953Y-1.0039
X1.3425Y-1.0118
X1.3425Y-1.0876
X1.3465Y-0.2126
X1.3504Y-0.0315
X1.3504Y-0.1102
X1.3504Y-0.3346
X1.4409Y-0.8307
X1.4449Y-0.685
X1.4567Y-0.3583
X1.5079Y-0.1693
X1.5354Y-0.0315
X1.5394Y-0.1102
X1.5512Y-0.2126
X1.5512Y-0.3386
X1.5906Y-0.689
X1.5906Y-0.8346
X1.5945Y-0.5512
X1.6663Y-1.0049
X1.6969Y-1.1811
X1.7165Y-0.8386
X1.7205Y-0.689
X1.7205Y-0.8898
X1.7244Y-0.5512
X1.7244Y-1.0354
X1.7283Y-0.3268
X1.7362Y-0.1102
X1.7402Y-0.0315
T3
X0.1654Y-0.5709
X0.1654Y-0.7677
T4
X0.5787Y-1.0787
X1.4075Y-1.0591
X1.5059Y-1.0591
T5
X0.0787Y-1.1417
X0.0827Y-0.0827
X1.9606Y-1.1378
X1.9646Y-0.0807
T2
G00X0.0728Y-0.5315
M15
G01X0.0453Y-0.5315
M16
G05
G00X0.0728Y-0.8071
M15
G01X0.0453Y-0.8071
M16
G05
T0
M30
