G04 #@! TF.GenerationSoftware,KiCad,Pcbnew,(5.1.9)-1*
G04 #@! TF.CreationDate,2021-04-20T13:04:07+03:00*
G04 #@! TF.ProjectId,ESP32_SCD40-D-R2,45535033-325f-4534-9344-34302d442d52,rev?*
G04 #@! TF.SameCoordinates,Original*
G04 #@! TF.FileFunction,Copper,L2,Bot*
G04 #@! TF.FilePolarity,Positive*
%FSLAX46Y46*%
G04 Gerber Fmt 4.6, Leading zero omitted, Abs format (unit mm)*
G04 Created by KiCad (PCBNEW (5.1.9)-1) date 2021-04-20 13:04:07*
%MOMM*%
%LPD*%
G01*
G04 APERTURE LIST*
G04 #@! TA.AperFunction,ComponentPad*
%ADD10C,1.879600*%
G04 #@! TD*
G04 #@! TA.AperFunction,ComponentPad*
%ADD11O,1.900000X0.950000*%
G04 #@! TD*
G04 #@! TA.AperFunction,ComponentPad*
%ADD12C,1.450000*%
G04 #@! TD*
G04 #@! TA.AperFunction,ViaPad*
%ADD13C,0.800000*%
G04 #@! TD*
G04 #@! TA.AperFunction,Conductor*
%ADD14C,0.812800*%
G04 #@! TD*
G04 #@! TA.AperFunction,Conductor*
%ADD15C,0.609600*%
G04 #@! TD*
G04 #@! TA.AperFunction,Conductor*
%ADD16C,0.250000*%
G04 #@! TD*
G04 #@! TA.AperFunction,Conductor*
%ADD17C,0.200000*%
G04 #@! TD*
G04 #@! TA.AperFunction,Conductor*
%ADD18C,0.254000*%
G04 #@! TD*
G04 #@! TA.AperFunction,Conductor*
%ADD19C,0.100000*%
G04 #@! TD*
G04 APERTURE END LIST*
D10*
G04 #@! TO.P,TP3,1*
G04 #@! TO.N,TXD*
X35750000Y-26900000D03*
G04 #@! TD*
G04 #@! TO.P,TP2,1*
G04 #@! TO.N,RXD*
X38250000Y-26900000D03*
G04 #@! TD*
G04 #@! TO.P,TP1,1*
G04 #@! TO.N,+3V3*
X14700000Y-27400000D03*
G04 #@! TD*
D11*
G04 #@! TO.P,J1,6*
G04 #@! TO.N,GND*
X1500000Y-20500000D03*
X1500000Y-13500000D03*
D12*
X4200000Y-19500000D03*
X4200000Y-14500000D03*
G04 #@! TD*
D13*
G04 #@! TO.N,GND*
X11150000Y-21300000D03*
X5800000Y-22500000D03*
X10200000Y-28600000D03*
X16600000Y-1700000D03*
X18100000Y-5100000D03*
X25700000Y-5500000D03*
X29100000Y-5200000D03*
X21900000Y-28500000D03*
X22000000Y-22200000D03*
X43700000Y-22600000D03*
X43900000Y-8300000D03*
X34200000Y-5400000D03*
X39400000Y-5400000D03*
X21100000Y-1700000D03*
X8500000Y-1700000D03*
X4500000Y-1700000D03*
X4200000Y-6800000D03*
X800000Y-6800000D03*
X34300000Y-2800000D03*
X32300000Y-900000D03*
X39100000Y-2800000D03*
X44100000Y-2800000D03*
X44200000Y-800000D03*
X39000000Y-800000D03*
X34300000Y-800000D03*
X10000000Y-17400000D03*
X32900000Y-25500000D03*
X34100000Y-27625010D03*
X13693590Y-24326432D03*
X34300000Y-8500000D03*
X39400000Y-8600000D03*
X27800000Y-14300000D03*
X27800000Y-17400000D03*
X27900000Y-21000000D03*
X32300000Y-21000000D03*
X32300000Y-17400000D03*
X32500000Y-14300000D03*
X36600000Y-21100000D03*
X36700000Y-17400000D03*
X40400000Y-17500000D03*
X40400000Y-21200000D03*
X40500000Y-14000000D03*
X43800000Y-14000000D03*
X43700000Y-17500000D03*
X43600000Y-21300000D03*
X22700000Y-17400000D03*
X22700000Y-14200000D03*
X22800000Y-10000000D03*
X800000Y-22500000D03*
X700000Y-26800000D03*
X5400000Y-29100000D03*
X7100000Y-26400000D03*
X17800000Y-29000000D03*
X27900000Y-30000000D03*
X29800000Y-28400000D03*
X43100000Y-30000000D03*
X43800000Y-26300000D03*
X8000000Y-16900000D03*
X18850000Y-17200000D03*
X18800000Y-22300000D03*
X18750000Y-19600000D03*
X18800000Y-11450000D03*
X27850000Y-11100000D03*
G04 #@! TO.N,+3V3*
X7500000Y-6800000D03*
X19400000Y-6800000D03*
X22200000Y-21000000D03*
X23100000Y-21000000D03*
X24400000Y-8400000D03*
X24400000Y-9300000D03*
X37000000Y-9100000D03*
X38300000Y-4300000D03*
G04 #@! TO.N,VBUS*
X3000000Y-21900000D03*
X5800000Y-12900000D03*
G04 #@! TO.N,RESET*
X13400000Y-12600000D03*
X18800000Y-24900000D03*
X42325000Y-25525000D03*
X15850000Y-16700000D03*
G04 #@! TO.N,D+*
X6175000Y-18400000D03*
X6771232Y-20528768D03*
G04 #@! TO.N,D-*
X7225000Y-18400000D03*
X6028768Y-21271232D03*
G04 #@! TO.N,RTS*
X13712379Y-18837698D03*
X12674990Y-14500000D03*
G04 #@! TO.N,BOOT*
X18800000Y-15200000D03*
X26200000Y-15200000D03*
G04 #@! TO.N,SDA*
X28800000Y-8300000D03*
X28700000Y-2900000D03*
G04 #@! TO.N,SCL*
X27600000Y-2800000D03*
X27600000Y-8300000D03*
G04 #@! TO.N,RXD*
X34100000Y-25700000D03*
G04 #@! TD*
D14*
G04 #@! TO.N,+3V3*
X19400000Y-6800000D02*
X22800000Y-6800000D01*
X22800000Y-6800000D02*
X24400000Y-8400000D01*
X7500000Y-6800000D02*
X19400000Y-6800000D01*
X14700000Y-27400000D02*
X14700000Y-22700000D01*
X14700000Y-22700000D02*
X16400000Y-21000000D01*
X16400000Y-21000000D02*
X22200000Y-21000000D01*
X22200000Y-21000000D02*
X23100000Y-21000000D01*
X24400000Y-8400000D02*
X24400000Y-9300000D01*
X24400000Y-9300000D02*
X24400000Y-9300000D01*
D15*
X37000000Y-9100000D02*
X37000000Y-5200000D01*
X37900000Y-4300000D02*
X38300000Y-4300000D01*
X37000000Y-5200000D02*
X37900000Y-4300000D01*
G04 #@! TO.N,VBUS*
X3979894Y-12900000D02*
X4400000Y-12900000D01*
X2954810Y-13925084D02*
X3979894Y-12900000D01*
X2954810Y-17945190D02*
X2954810Y-13925084D01*
X3000000Y-21900000D02*
X2954810Y-21854810D01*
X2954810Y-21854810D02*
X2954810Y-17945190D01*
X4400000Y-12900000D02*
X5800000Y-12900000D01*
D16*
G04 #@! TO.N,RESET*
X19199999Y-24500001D02*
X18800000Y-24900000D01*
X41300000Y-24500000D02*
X19199999Y-24500001D01*
X42325000Y-25525000D02*
X41300000Y-24500000D01*
X15850000Y-16750000D02*
X15850000Y-16700000D01*
X14200000Y-16700000D02*
X15850000Y-16700000D01*
X13400000Y-15900000D02*
X14200000Y-16700000D01*
X13400000Y-12600000D02*
X13400000Y-15900000D01*
D17*
G04 #@! TO.N,D+*
X6175000Y-17986397D02*
X5913603Y-17725000D01*
X6175000Y-18400000D02*
X6175000Y-17986397D01*
X5913603Y-17725000D02*
X5793200Y-17725000D01*
X5793200Y-17725000D02*
X5562960Y-17955240D01*
X5674992Y-19856793D02*
X6339449Y-20521250D01*
X5562960Y-17955240D02*
X5562960Y-18709575D01*
X6339449Y-20521250D02*
X6388760Y-20521250D01*
X5562960Y-18709575D02*
X5674992Y-18821607D01*
X6388760Y-20521250D02*
X6396278Y-20528768D01*
X5674992Y-18821607D02*
X5674992Y-19856793D01*
X6396278Y-20528768D02*
X6771232Y-20528768D01*
G04 #@! TO.N,D-*
X6100000Y-17275000D02*
X5606800Y-17275000D01*
X7225000Y-18400000D02*
X6100000Y-17275000D01*
X5606800Y-17275000D02*
X5112960Y-17768840D01*
X6028768Y-20846967D02*
X6028768Y-21271232D01*
X5112960Y-17768840D02*
X5112960Y-18895958D01*
X5112960Y-18895958D02*
X5225001Y-19007999D01*
X5225001Y-19007999D02*
X5225001Y-20043200D01*
X5225001Y-20043200D02*
X6028768Y-20846967D01*
D16*
G04 #@! TO.N,RTS*
X13712379Y-18837698D02*
X12674990Y-17800309D01*
X12674990Y-17800309D02*
X12674990Y-14500000D01*
G04 #@! TO.N,BOOT*
X18800000Y-15200000D02*
X26200000Y-15200000D01*
G04 #@! TO.N,SDA*
X28300000Y-7800000D02*
X28800000Y-8300000D01*
X28300000Y-3300000D02*
X28300000Y-7800000D01*
X28700000Y-2900000D02*
X28300000Y-3300000D01*
G04 #@! TO.N,SCL*
X27600000Y-2800000D02*
X27600000Y-8300000D01*
G04 #@! TO.N,RXD*
X36650001Y-25300001D02*
X38250000Y-26900000D01*
X34499999Y-25300001D02*
X36650001Y-25300001D01*
X34100000Y-25700000D02*
X34499999Y-25300001D01*
G04 #@! TD*
D18*
G04 #@! TO.N,GND*
X50228652Y-440171D02*
X50544791Y-535619D01*
X50836366Y-690652D01*
X51092277Y-899366D01*
X51302775Y-1153815D01*
X51459842Y-1444303D01*
X51557493Y-1759763D01*
X51594001Y-2107113D01*
X51594000Y-28880147D01*
X51559829Y-29228653D01*
X51464381Y-29544790D01*
X51309345Y-29836370D01*
X51100630Y-30092281D01*
X50846182Y-30302777D01*
X50555697Y-30459842D01*
X50240237Y-30557493D01*
X49892897Y-30594000D01*
X2119853Y-30594000D01*
X1771347Y-30559829D01*
X1455210Y-30464381D01*
X1163630Y-30309345D01*
X907719Y-30100630D01*
X697223Y-29846182D01*
X540158Y-29555697D01*
X442507Y-29240237D01*
X406000Y-28892897D01*
X406000Y-28854134D01*
X519000Y-28854134D01*
X519000Y-29145866D01*
X575914Y-29431992D01*
X687555Y-29701517D01*
X849632Y-29944083D01*
X1055917Y-30150368D01*
X1298483Y-30312445D01*
X1568008Y-30424086D01*
X1854134Y-30481000D01*
X2145866Y-30481000D01*
X2431992Y-30424086D01*
X2701517Y-30312445D01*
X2944083Y-30150368D01*
X3150368Y-29944083D01*
X3312445Y-29701517D01*
X3424086Y-29431992D01*
X3481000Y-29145866D01*
X3481000Y-28854134D01*
X3461109Y-28754134D01*
X48319000Y-28754134D01*
X48319000Y-29045866D01*
X48375914Y-29331992D01*
X48487555Y-29601517D01*
X48649632Y-29844083D01*
X48855917Y-30050368D01*
X49098483Y-30212445D01*
X49368008Y-30324086D01*
X49654134Y-30381000D01*
X49945866Y-30381000D01*
X50231992Y-30324086D01*
X50501517Y-30212445D01*
X50744083Y-30050368D01*
X50950368Y-29844083D01*
X51112445Y-29601517D01*
X51224086Y-29331992D01*
X51281000Y-29045866D01*
X51281000Y-28754134D01*
X51224086Y-28468008D01*
X51112445Y-28198483D01*
X50950368Y-27955917D01*
X50744083Y-27749632D01*
X50501517Y-27587555D01*
X50231992Y-27475914D01*
X49945866Y-27419000D01*
X49654134Y-27419000D01*
X49368008Y-27475914D01*
X49098483Y-27587555D01*
X48855917Y-27749632D01*
X48649632Y-27955917D01*
X48487555Y-28198483D01*
X48375914Y-28468008D01*
X48319000Y-28754134D01*
X3461109Y-28754134D01*
X3424086Y-28568008D01*
X3312445Y-28298483D01*
X3150368Y-28055917D01*
X2944083Y-27849632D01*
X2701517Y-27687555D01*
X2431992Y-27575914D01*
X2145866Y-27519000D01*
X1854134Y-27519000D01*
X1568008Y-27575914D01*
X1298483Y-27687555D01*
X1055917Y-27849632D01*
X849632Y-28055917D01*
X687555Y-28298483D01*
X575914Y-28568008D01*
X519000Y-28854134D01*
X406000Y-28854134D01*
X406000Y-27269913D01*
X13379200Y-27269913D01*
X13379200Y-27530087D01*
X13429957Y-27785263D01*
X13529522Y-28025634D01*
X13674067Y-28241961D01*
X13858039Y-28425933D01*
X14074366Y-28570478D01*
X14314737Y-28670043D01*
X14569913Y-28720800D01*
X14830087Y-28720800D01*
X15085263Y-28670043D01*
X15325634Y-28570478D01*
X15541961Y-28425933D01*
X15725933Y-28241961D01*
X15870478Y-28025634D01*
X15970043Y-27785263D01*
X16020800Y-27530087D01*
X16020800Y-27269913D01*
X15970043Y-27014737D01*
X15870478Y-26774366D01*
X15725933Y-26558039D01*
X15541961Y-26374067D01*
X15487400Y-26337611D01*
X15487400Y-24823078D01*
X18019000Y-24823078D01*
X18019000Y-24976922D01*
X18049013Y-25127809D01*
X18107887Y-25269942D01*
X18193358Y-25397859D01*
X18302141Y-25506642D01*
X18430058Y-25592113D01*
X18572191Y-25650987D01*
X18723078Y-25681000D01*
X18876922Y-25681000D01*
X19027809Y-25650987D01*
X19169942Y-25592113D01*
X19297859Y-25506642D01*
X19406642Y-25397859D01*
X19492113Y-25269942D01*
X19550987Y-25127809D01*
X19575216Y-25006001D01*
X33734614Y-25006000D01*
X33730058Y-25007887D01*
X33602141Y-25093358D01*
X33493358Y-25202141D01*
X33407887Y-25330058D01*
X33349013Y-25472191D01*
X33319000Y-25623078D01*
X33319000Y-25776922D01*
X33349013Y-25927809D01*
X33407887Y-26069942D01*
X33493358Y-26197859D01*
X33602141Y-26306642D01*
X33730058Y-26392113D01*
X33872191Y-26450987D01*
X34023078Y-26481000D01*
X34176922Y-26481000D01*
X34327809Y-26450987D01*
X34469942Y-26392113D01*
X34554019Y-26335934D01*
X34479957Y-26514737D01*
X34429200Y-26769913D01*
X34429200Y-27030087D01*
X34479957Y-27285263D01*
X34579522Y-27525634D01*
X34724067Y-27741961D01*
X34908039Y-27925933D01*
X35124366Y-28070478D01*
X35364737Y-28170043D01*
X35619913Y-28220800D01*
X35880087Y-28220800D01*
X36135263Y-28170043D01*
X36375634Y-28070478D01*
X36591961Y-27925933D01*
X36775933Y-27741961D01*
X36920478Y-27525634D01*
X37000000Y-27333651D01*
X37079522Y-27525634D01*
X37224067Y-27741961D01*
X37408039Y-27925933D01*
X37624366Y-28070478D01*
X37864737Y-28170043D01*
X38119913Y-28220800D01*
X38380087Y-28220800D01*
X38635263Y-28170043D01*
X38875634Y-28070478D01*
X39091961Y-27925933D01*
X39275933Y-27741961D01*
X39420478Y-27525634D01*
X39520043Y-27285263D01*
X39570800Y-27030087D01*
X39570800Y-26769913D01*
X39520043Y-26514737D01*
X39420478Y-26274366D01*
X39275933Y-26058039D01*
X39091961Y-25874067D01*
X38875634Y-25729522D01*
X38635263Y-25629957D01*
X38380087Y-25579200D01*
X38119913Y-25579200D01*
X37864737Y-25629957D01*
X37745103Y-25679511D01*
X37071590Y-25005999D01*
X41090408Y-25005999D01*
X41544000Y-25459592D01*
X41544000Y-25601922D01*
X41574013Y-25752809D01*
X41632887Y-25894942D01*
X41718358Y-26022859D01*
X41827141Y-26131642D01*
X41955058Y-26217113D01*
X42097191Y-26275987D01*
X42248078Y-26306000D01*
X42401922Y-26306000D01*
X42552809Y-26275987D01*
X42694942Y-26217113D01*
X42822859Y-26131642D01*
X42931642Y-26022859D01*
X43017113Y-25894942D01*
X43075987Y-25752809D01*
X43106000Y-25601922D01*
X43106000Y-25448078D01*
X43075987Y-25297191D01*
X43017113Y-25155058D01*
X42931642Y-25027141D01*
X42822859Y-24918358D01*
X42694942Y-24832887D01*
X42552809Y-24774013D01*
X42401922Y-24744000D01*
X42259592Y-24744000D01*
X41675370Y-24159779D01*
X41659526Y-24140473D01*
X41582478Y-24077241D01*
X41494574Y-24030255D01*
X41399192Y-24001322D01*
X41324853Y-23994000D01*
X41324846Y-23994000D01*
X41300000Y-23991553D01*
X41275154Y-23994000D01*
X19224855Y-23994002D01*
X19199998Y-23991554D01*
X19100806Y-24001323D01*
X19005424Y-24030256D01*
X18917520Y-24077243D01*
X18866638Y-24119000D01*
X18723078Y-24119000D01*
X18572191Y-24149013D01*
X18430058Y-24207887D01*
X18302141Y-24293358D01*
X18193358Y-24402141D01*
X18107887Y-24530058D01*
X18049013Y-24672191D01*
X18019000Y-24823078D01*
X15487400Y-24823078D01*
X15487400Y-23026150D01*
X16726151Y-21787400D01*
X23138673Y-21787400D01*
X23254357Y-21776006D01*
X23402783Y-21730982D01*
X23539572Y-21657866D01*
X23659469Y-21559469D01*
X23757866Y-21439572D01*
X23830982Y-21302783D01*
X23876006Y-21154357D01*
X23891209Y-21000000D01*
X23876006Y-20845643D01*
X23830982Y-20697217D01*
X23757866Y-20560428D01*
X23659469Y-20440531D01*
X23539572Y-20342134D01*
X23402783Y-20269018D01*
X23254357Y-20223994D01*
X23138673Y-20212600D01*
X16438662Y-20212600D01*
X16399999Y-20208792D01*
X16361336Y-20212600D01*
X16361327Y-20212600D01*
X16245643Y-20223994D01*
X16097217Y-20269018D01*
X15960428Y-20342134D01*
X15840531Y-20440531D01*
X15815877Y-20470572D01*
X14170573Y-22115877D01*
X14140532Y-22140531D01*
X14115879Y-22170571D01*
X14042135Y-22260428D01*
X13969018Y-22397218D01*
X13923995Y-22545643D01*
X13908792Y-22700000D01*
X13912601Y-22738673D01*
X13912600Y-26337610D01*
X13858039Y-26374067D01*
X13674067Y-26558039D01*
X13529522Y-26774366D01*
X13429957Y-27014737D01*
X13379200Y-27269913D01*
X406000Y-27269913D01*
X406000Y-21171601D01*
X439810Y-21205754D01*
X588740Y-21306358D01*
X754435Y-21375974D01*
X930528Y-21411927D01*
X1110251Y-21412835D01*
X1252000Y-21293010D01*
X1252000Y-20748000D01*
X1232000Y-20748000D01*
X1232000Y-20252000D01*
X1252000Y-20252000D01*
X1252000Y-19706990D01*
X1110251Y-19587165D01*
X930528Y-19588073D01*
X754435Y-19624026D01*
X588740Y-19693642D01*
X439810Y-19794246D01*
X406000Y-19828399D01*
X406000Y-14171601D01*
X439810Y-14205754D01*
X588740Y-14306358D01*
X754435Y-14375974D01*
X930528Y-14411927D01*
X1110251Y-14412835D01*
X1252000Y-14293010D01*
X1252000Y-13748000D01*
X1232000Y-13748000D01*
X1232000Y-13252000D01*
X1252000Y-13252000D01*
X1252000Y-12706990D01*
X1748000Y-12706990D01*
X1748000Y-13252000D01*
X1768000Y-13252000D01*
X1768000Y-13748000D01*
X1748000Y-13748000D01*
X1748000Y-14293010D01*
X1889749Y-14412835D01*
X2069472Y-14411927D01*
X2245565Y-14375974D01*
X2269011Y-14366123D01*
X2269010Y-17978878D01*
X2269011Y-17978888D01*
X2269011Y-19633877D01*
X2245565Y-19624026D01*
X2069472Y-19588073D01*
X1889749Y-19587165D01*
X1748000Y-19706990D01*
X1748000Y-20252000D01*
X1768000Y-20252000D01*
X1768000Y-20748000D01*
X1748000Y-20748000D01*
X1748000Y-21293010D01*
X1889749Y-21412835D01*
X2069472Y-21411927D01*
X2245565Y-21375974D01*
X2269010Y-21366124D01*
X2269010Y-21623914D01*
X2249013Y-21672191D01*
X2219000Y-21823078D01*
X2219000Y-21976922D01*
X2249013Y-22127809D01*
X2307887Y-22269942D01*
X2393358Y-22397859D01*
X2502141Y-22506642D01*
X2630058Y-22592113D01*
X2772191Y-22650987D01*
X2923078Y-22681000D01*
X3076922Y-22681000D01*
X3227809Y-22650987D01*
X3369942Y-22592113D01*
X3497859Y-22506642D01*
X3606642Y-22397859D01*
X3692113Y-22269942D01*
X3750987Y-22127809D01*
X3781000Y-21976922D01*
X3781000Y-21823078D01*
X3750987Y-21672191D01*
X3692113Y-21530058D01*
X3640610Y-21452978D01*
X3640610Y-20410118D01*
X3678600Y-20372128D01*
X3763872Y-20522201D01*
X3971674Y-20587643D01*
X4188249Y-20611289D01*
X4405277Y-20592228D01*
X4614416Y-20531194D01*
X4636128Y-20522201D01*
X4721400Y-20372128D01*
X4810046Y-20460774D01*
X4884676Y-20386144D01*
X4901590Y-20400025D01*
X5363171Y-20861606D01*
X5336655Y-20901290D01*
X5277781Y-21043423D01*
X5247768Y-21194310D01*
X5247768Y-21348154D01*
X5277781Y-21499041D01*
X5336655Y-21641174D01*
X5422126Y-21769091D01*
X5530909Y-21877874D01*
X5658826Y-21963345D01*
X5800959Y-22022219D01*
X5951846Y-22052232D01*
X6105690Y-22052232D01*
X6256577Y-22022219D01*
X6398710Y-21963345D01*
X6526627Y-21877874D01*
X6635410Y-21769091D01*
X6720881Y-21641174D01*
X6779755Y-21499041D01*
X6809768Y-21348154D01*
X6809768Y-21309768D01*
X6848154Y-21309768D01*
X6999041Y-21279755D01*
X7141174Y-21220881D01*
X7269091Y-21135410D01*
X7377874Y-21026627D01*
X7463345Y-20898710D01*
X7522219Y-20756577D01*
X7552232Y-20605690D01*
X7552232Y-20451846D01*
X7522219Y-20300959D01*
X7463345Y-20158826D01*
X7377874Y-20030909D01*
X7269091Y-19922126D01*
X7141174Y-19836655D01*
X6999041Y-19777781D01*
X6848154Y-19747768D01*
X6694310Y-19747768D01*
X6543423Y-19777781D01*
X6401290Y-19836655D01*
X6361606Y-19863171D01*
X6155992Y-19657557D01*
X6155992Y-19181000D01*
X6251922Y-19181000D01*
X6402809Y-19150987D01*
X6544942Y-19092113D01*
X6672859Y-19006642D01*
X6700000Y-18979501D01*
X6727141Y-19006642D01*
X6855058Y-19092113D01*
X6997191Y-19150987D01*
X7148078Y-19181000D01*
X7301922Y-19181000D01*
X7452809Y-19150987D01*
X7594942Y-19092113D01*
X7722859Y-19006642D01*
X7831642Y-18897859D01*
X7917113Y-18769942D01*
X7975987Y-18627809D01*
X8006000Y-18476922D01*
X8006000Y-18323078D01*
X7975987Y-18172191D01*
X7917113Y-18030058D01*
X7831642Y-17902141D01*
X7722859Y-17793358D01*
X7594942Y-17707887D01*
X7452809Y-17649013D01*
X7301922Y-17619000D01*
X7148078Y-17619000D01*
X7128192Y-17622956D01*
X6456830Y-16951594D01*
X6441764Y-16933236D01*
X6368522Y-16873128D01*
X6284961Y-16828464D01*
X6194292Y-16800960D01*
X6123626Y-16794000D01*
X6100000Y-16791673D01*
X6076374Y-16794000D01*
X5630423Y-16794000D01*
X5606799Y-16791673D01*
X5583175Y-16794000D01*
X5583174Y-16794000D01*
X5512508Y-16800960D01*
X5421839Y-16828464D01*
X5338278Y-16873128D01*
X5265036Y-16933236D01*
X5249974Y-16951589D01*
X4789554Y-17412010D01*
X4771196Y-17427076D01*
X4711088Y-17500318D01*
X4666424Y-17583880D01*
X4656449Y-17616764D01*
X4638920Y-17674548D01*
X4629633Y-17768840D01*
X4631960Y-17792467D01*
X4631961Y-18476487D01*
X4428326Y-18412357D01*
X4211751Y-18388711D01*
X3994723Y-18407772D01*
X3785584Y-18468806D01*
X3763872Y-18477799D01*
X3678600Y-18627872D01*
X3640610Y-18589882D01*
X3640610Y-15410118D01*
X3678600Y-15372128D01*
X3763872Y-15522201D01*
X3971674Y-15587643D01*
X4188249Y-15611289D01*
X4405277Y-15592228D01*
X4614416Y-15531194D01*
X4636128Y-15522201D01*
X4721401Y-15372126D01*
X4200000Y-14850725D01*
X4185858Y-14864868D01*
X3835133Y-14514143D01*
X3849275Y-14500000D01*
X4550725Y-14500000D01*
X5072126Y-15021401D01*
X5222201Y-14936128D01*
X5287643Y-14728326D01*
X5311289Y-14511751D01*
X5303502Y-14423078D01*
X11893990Y-14423078D01*
X11893990Y-14576922D01*
X11924003Y-14727809D01*
X11982877Y-14869942D01*
X12068348Y-14997859D01*
X12168991Y-15098502D01*
X12168990Y-17775463D01*
X12166543Y-17800309D01*
X12168990Y-17825155D01*
X12168990Y-17825162D01*
X12176312Y-17899501D01*
X12205245Y-17994883D01*
X12252231Y-18082788D01*
X12315463Y-18159836D01*
X12334775Y-18175685D01*
X12931379Y-18772290D01*
X12931379Y-18914620D01*
X12961392Y-19065507D01*
X13020266Y-19207640D01*
X13105737Y-19335557D01*
X13214520Y-19444340D01*
X13342437Y-19529811D01*
X13484570Y-19588685D01*
X13635457Y-19618698D01*
X13789301Y-19618698D01*
X13940188Y-19588685D01*
X14082321Y-19529811D01*
X14210238Y-19444340D01*
X14319021Y-19335557D01*
X14404492Y-19207640D01*
X14463366Y-19065507D01*
X14493379Y-18914620D01*
X14493379Y-18760776D01*
X14463366Y-18609889D01*
X14404492Y-18467756D01*
X14319021Y-18339839D01*
X14210238Y-18231056D01*
X14082321Y-18145585D01*
X13940188Y-18086711D01*
X13789301Y-18056698D01*
X13646971Y-18056698D01*
X13180990Y-17590718D01*
X13180990Y-16396581D01*
X13824628Y-17040220D01*
X13840473Y-17059527D01*
X13917521Y-17122759D01*
X14005425Y-17169745D01*
X14100807Y-17198678D01*
X14200000Y-17208448D01*
X14224854Y-17206000D01*
X15251499Y-17206000D01*
X15352141Y-17306642D01*
X15480058Y-17392113D01*
X15622191Y-17450987D01*
X15773078Y-17481000D01*
X15926922Y-17481000D01*
X16077809Y-17450987D01*
X16219942Y-17392113D01*
X16347859Y-17306642D01*
X16456642Y-17197859D01*
X16542113Y-17069942D01*
X16600987Y-16927809D01*
X16631000Y-16776922D01*
X16631000Y-16623078D01*
X16600987Y-16472191D01*
X16542113Y-16330058D01*
X16456642Y-16202141D01*
X16347859Y-16093358D01*
X16219942Y-16007887D01*
X16077809Y-15949013D01*
X15926922Y-15919000D01*
X15773078Y-15919000D01*
X15622191Y-15949013D01*
X15480058Y-16007887D01*
X15352141Y-16093358D01*
X15251499Y-16194000D01*
X14409592Y-16194000D01*
X13906000Y-15690409D01*
X13906000Y-15123078D01*
X18019000Y-15123078D01*
X18019000Y-15276922D01*
X18049013Y-15427809D01*
X18107887Y-15569942D01*
X18193358Y-15697859D01*
X18302141Y-15806642D01*
X18430058Y-15892113D01*
X18572191Y-15950987D01*
X18723078Y-15981000D01*
X18876922Y-15981000D01*
X19027809Y-15950987D01*
X19169942Y-15892113D01*
X19297859Y-15806642D01*
X19398501Y-15706000D01*
X25601499Y-15706000D01*
X25702141Y-15806642D01*
X25830058Y-15892113D01*
X25972191Y-15950987D01*
X26123078Y-15981000D01*
X26276922Y-15981000D01*
X26427809Y-15950987D01*
X26569942Y-15892113D01*
X26697859Y-15806642D01*
X26806642Y-15697859D01*
X26892113Y-15569942D01*
X26950987Y-15427809D01*
X26981000Y-15276922D01*
X26981000Y-15123078D01*
X26950987Y-14972191D01*
X26892113Y-14830058D01*
X26806642Y-14702141D01*
X26697859Y-14593358D01*
X26569942Y-14507887D01*
X26427809Y-14449013D01*
X26276922Y-14419000D01*
X26123078Y-14419000D01*
X25972191Y-14449013D01*
X25830058Y-14507887D01*
X25702141Y-14593358D01*
X25601499Y-14694000D01*
X19398501Y-14694000D01*
X19297859Y-14593358D01*
X19169942Y-14507887D01*
X19027809Y-14449013D01*
X18876922Y-14419000D01*
X18723078Y-14419000D01*
X18572191Y-14449013D01*
X18430058Y-14507887D01*
X18302141Y-14593358D01*
X18193358Y-14702141D01*
X18107887Y-14830058D01*
X18049013Y-14972191D01*
X18019000Y-15123078D01*
X13906000Y-15123078D01*
X13906000Y-13198501D01*
X14006642Y-13097859D01*
X14092113Y-12969942D01*
X14150987Y-12827809D01*
X14181000Y-12676922D01*
X14181000Y-12523078D01*
X14150987Y-12372191D01*
X14092113Y-12230058D01*
X14006642Y-12102141D01*
X13897859Y-11993358D01*
X13769942Y-11907887D01*
X13627809Y-11849013D01*
X13476922Y-11819000D01*
X13323078Y-11819000D01*
X13172191Y-11849013D01*
X13030058Y-11907887D01*
X12902141Y-11993358D01*
X12793358Y-12102141D01*
X12707887Y-12230058D01*
X12649013Y-12372191D01*
X12619000Y-12523078D01*
X12619000Y-12676922D01*
X12649013Y-12827809D01*
X12707887Y-12969942D01*
X12793358Y-13097859D01*
X12894000Y-13198501D01*
X12894000Y-13747263D01*
X12751912Y-13719000D01*
X12598068Y-13719000D01*
X12447181Y-13749013D01*
X12305048Y-13807887D01*
X12177131Y-13893358D01*
X12068348Y-14002141D01*
X11982877Y-14130058D01*
X11924003Y-14272191D01*
X11893990Y-14423078D01*
X5303502Y-14423078D01*
X5292228Y-14294723D01*
X5231194Y-14085584D01*
X5222201Y-14063872D01*
X5072126Y-13978599D01*
X4550725Y-14500000D01*
X3849275Y-14500000D01*
X3835133Y-14485858D01*
X4185858Y-14135133D01*
X4200000Y-14149275D01*
X4721401Y-13627874D01*
X4697494Y-13585800D01*
X5420610Y-13585800D01*
X5430058Y-13592113D01*
X5572191Y-13650987D01*
X5723078Y-13681000D01*
X5876922Y-13681000D01*
X6027809Y-13650987D01*
X6169942Y-13592113D01*
X6297859Y-13506642D01*
X6406642Y-13397859D01*
X6492113Y-13269942D01*
X6550987Y-13127809D01*
X6581000Y-12976922D01*
X6581000Y-12823078D01*
X6550987Y-12672191D01*
X6492113Y-12530058D01*
X6406642Y-12402141D01*
X6297859Y-12293358D01*
X6169942Y-12207887D01*
X6027809Y-12149013D01*
X5876922Y-12119000D01*
X5723078Y-12119000D01*
X5572191Y-12149013D01*
X5430058Y-12207887D01*
X5420610Y-12214200D01*
X4013580Y-12214200D01*
X3979894Y-12210882D01*
X3946208Y-12214200D01*
X3946205Y-12214200D01*
X3845454Y-12224123D01*
X3716180Y-12263338D01*
X3597041Y-12327019D01*
X3492614Y-12412720D01*
X3471136Y-12438891D01*
X2719254Y-13190773D01*
X2745404Y-13126889D01*
X2686632Y-12921972D01*
X2560190Y-12794246D01*
X2411260Y-12693642D01*
X2245565Y-12624026D01*
X2069472Y-12588073D01*
X1889749Y-12587165D01*
X1748000Y-12706990D01*
X1252000Y-12706990D01*
X1110251Y-12587165D01*
X930528Y-12588073D01*
X754435Y-12624026D01*
X588740Y-12693642D01*
X439810Y-12794246D01*
X406000Y-12828399D01*
X406000Y-6800000D01*
X6708791Y-6800000D01*
X6723994Y-6954357D01*
X6769018Y-7102783D01*
X6842134Y-7239572D01*
X6940531Y-7359469D01*
X7060428Y-7457866D01*
X7197217Y-7530982D01*
X7345643Y-7576006D01*
X7461327Y-7587400D01*
X22473850Y-7587400D01*
X23612600Y-8726152D01*
X23612600Y-9261327D01*
X23608791Y-9300000D01*
X23623994Y-9454357D01*
X23669018Y-9602783D01*
X23742134Y-9739572D01*
X23840531Y-9859469D01*
X23960428Y-9957866D01*
X24097217Y-10030982D01*
X24245643Y-10076006D01*
X24361327Y-10087400D01*
X24400000Y-10091209D01*
X24438673Y-10087400D01*
X24554357Y-10076006D01*
X24702783Y-10030982D01*
X24839572Y-9957866D01*
X24959469Y-9859469D01*
X25057866Y-9739572D01*
X25130982Y-9602783D01*
X25176006Y-9454357D01*
X25191209Y-9300000D01*
X25187400Y-9261327D01*
X25187400Y-8438665D01*
X25191208Y-8400000D01*
X25187400Y-8361335D01*
X25187400Y-8361327D01*
X25176006Y-8245643D01*
X25130982Y-8097217D01*
X25117605Y-8072191D01*
X25057866Y-7960427D01*
X24984122Y-7870570D01*
X24984119Y-7870567D01*
X24959469Y-7840531D01*
X24929434Y-7815882D01*
X23384127Y-6270577D01*
X23359469Y-6240531D01*
X23239572Y-6142134D01*
X23102783Y-6069018D01*
X22954357Y-6023994D01*
X22838673Y-6012600D01*
X22838663Y-6012600D01*
X22800000Y-6008792D01*
X22761337Y-6012600D01*
X7461327Y-6012600D01*
X7345643Y-6023994D01*
X7197217Y-6069018D01*
X7060428Y-6142134D01*
X6940531Y-6240531D01*
X6842134Y-6360428D01*
X6769018Y-6497217D01*
X6723994Y-6645643D01*
X6708791Y-6800000D01*
X406000Y-6800000D01*
X406000Y-2119854D01*
X422248Y-1954134D01*
X619000Y-1954134D01*
X619000Y-2245866D01*
X675914Y-2531992D01*
X787555Y-2801517D01*
X949632Y-3044083D01*
X1155917Y-3250368D01*
X1398483Y-3412445D01*
X1668008Y-3524086D01*
X1954134Y-3581000D01*
X2245866Y-3581000D01*
X2531992Y-3524086D01*
X2801517Y-3412445D01*
X3044083Y-3250368D01*
X3250368Y-3044083D01*
X3412445Y-2801517D01*
X3444935Y-2723078D01*
X26819000Y-2723078D01*
X26819000Y-2876922D01*
X26849013Y-3027809D01*
X26907887Y-3169942D01*
X26993358Y-3297859D01*
X27094000Y-3398501D01*
X27094001Y-7701498D01*
X26993358Y-7802141D01*
X26907887Y-7930058D01*
X26849013Y-8072191D01*
X26819000Y-8223078D01*
X26819000Y-8376922D01*
X26849013Y-8527809D01*
X26907887Y-8669942D01*
X26993358Y-8797859D01*
X27102141Y-8906642D01*
X27230058Y-8992113D01*
X27372191Y-9050987D01*
X27523078Y-9081000D01*
X27676922Y-9081000D01*
X27827809Y-9050987D01*
X27969942Y-8992113D01*
X28097859Y-8906642D01*
X28200000Y-8804501D01*
X28302141Y-8906642D01*
X28430058Y-8992113D01*
X28572191Y-9050987D01*
X28723078Y-9081000D01*
X28876922Y-9081000D01*
X29027809Y-9050987D01*
X29095186Y-9023078D01*
X36219000Y-9023078D01*
X36219000Y-9176922D01*
X36249013Y-9327809D01*
X36307887Y-9469942D01*
X36393358Y-9597859D01*
X36502141Y-9706642D01*
X36630058Y-9792113D01*
X36772191Y-9850987D01*
X36923078Y-9881000D01*
X37076922Y-9881000D01*
X37227809Y-9850987D01*
X37369942Y-9792113D01*
X37497859Y-9706642D01*
X37606642Y-9597859D01*
X37692113Y-9469942D01*
X37750987Y-9327809D01*
X37781000Y-9176922D01*
X37781000Y-9023078D01*
X37750987Y-8872191D01*
X37692113Y-8730058D01*
X37685800Y-8720610D01*
X37685800Y-5484067D01*
X38111134Y-5058733D01*
X38223078Y-5081000D01*
X38376922Y-5081000D01*
X38527809Y-5050987D01*
X38669942Y-4992113D01*
X38797859Y-4906642D01*
X38906642Y-4797859D01*
X38992113Y-4669942D01*
X39050987Y-4527809D01*
X39081000Y-4376922D01*
X39081000Y-4223078D01*
X39050987Y-4072191D01*
X38992113Y-3930058D01*
X38906642Y-3802141D01*
X38797859Y-3693358D01*
X38669942Y-3607887D01*
X38527809Y-3549013D01*
X38376922Y-3519000D01*
X38223078Y-3519000D01*
X38072191Y-3549013D01*
X37930058Y-3607887D01*
X37922289Y-3613078D01*
X37899999Y-3610883D01*
X37866320Y-3614200D01*
X37866311Y-3614200D01*
X37765560Y-3624123D01*
X37636286Y-3663338D01*
X37517147Y-3727019D01*
X37412720Y-3812720D01*
X37391246Y-3838886D01*
X36538886Y-4691247D01*
X36512721Y-4712720D01*
X36491248Y-4738885D01*
X36491245Y-4738888D01*
X36427020Y-4817147D01*
X36363339Y-4936286D01*
X36324124Y-5065560D01*
X36310883Y-5200000D01*
X36314201Y-5233689D01*
X36314200Y-8720610D01*
X36307887Y-8730058D01*
X36249013Y-8872191D01*
X36219000Y-9023078D01*
X29095186Y-9023078D01*
X29169942Y-8992113D01*
X29297859Y-8906642D01*
X29406642Y-8797859D01*
X29492113Y-8669942D01*
X29550987Y-8527809D01*
X29581000Y-8376922D01*
X29581000Y-8223078D01*
X29550987Y-8072191D01*
X29492113Y-7930058D01*
X29406642Y-7802141D01*
X29297859Y-7693358D01*
X29169942Y-7607887D01*
X29027809Y-7549013D01*
X28876922Y-7519000D01*
X28806000Y-7519000D01*
X28806000Y-3675216D01*
X28927809Y-3650987D01*
X29069942Y-3592113D01*
X29197859Y-3506642D01*
X29306642Y-3397859D01*
X29392113Y-3269942D01*
X29450987Y-3127809D01*
X29481000Y-2976922D01*
X29481000Y-2823078D01*
X29450987Y-2672191D01*
X29392113Y-2530058D01*
X29306642Y-2402141D01*
X29197859Y-2293358D01*
X29069942Y-2207887D01*
X28927809Y-2149013D01*
X28776922Y-2119000D01*
X28623078Y-2119000D01*
X28472191Y-2149013D01*
X28330058Y-2207887D01*
X28202141Y-2293358D01*
X28200000Y-2295499D01*
X28097859Y-2193358D01*
X27969942Y-2107887D01*
X27827809Y-2049013D01*
X27676922Y-2019000D01*
X27523078Y-2019000D01*
X27372191Y-2049013D01*
X27230058Y-2107887D01*
X27102141Y-2193358D01*
X26993358Y-2302141D01*
X26907887Y-2430058D01*
X26849013Y-2572191D01*
X26819000Y-2723078D01*
X3444935Y-2723078D01*
X3524086Y-2531992D01*
X3581000Y-2245866D01*
X3581000Y-1954134D01*
X3571055Y-1904134D01*
X48419000Y-1904134D01*
X48419000Y-2195866D01*
X48475914Y-2481992D01*
X48587555Y-2751517D01*
X48749632Y-2994083D01*
X48955917Y-3200368D01*
X49198483Y-3362445D01*
X49468008Y-3474086D01*
X49754134Y-3531000D01*
X50045866Y-3531000D01*
X50331992Y-3474086D01*
X50601517Y-3362445D01*
X50844083Y-3200368D01*
X51050368Y-2994083D01*
X51212445Y-2751517D01*
X51324086Y-2481992D01*
X51381000Y-2195866D01*
X51381000Y-1904134D01*
X51324086Y-1618008D01*
X51212445Y-1348483D01*
X51050368Y-1105917D01*
X50844083Y-899632D01*
X50601517Y-737555D01*
X50331992Y-625914D01*
X50045866Y-569000D01*
X49754134Y-569000D01*
X49468008Y-625914D01*
X49198483Y-737555D01*
X48955917Y-899632D01*
X48749632Y-1105917D01*
X48587555Y-1348483D01*
X48475914Y-1618008D01*
X48419000Y-1904134D01*
X3571055Y-1904134D01*
X3524086Y-1668008D01*
X3412445Y-1398483D01*
X3250368Y-1155917D01*
X3044083Y-949632D01*
X2801517Y-787555D01*
X2531992Y-675914D01*
X2245866Y-619000D01*
X1954134Y-619000D01*
X1668008Y-675914D01*
X1398483Y-787555D01*
X1155917Y-949632D01*
X949632Y-1155917D01*
X787555Y-1398483D01*
X675914Y-1668008D01*
X619000Y-1954134D01*
X422248Y-1954134D01*
X440171Y-1771348D01*
X535619Y-1455209D01*
X690652Y-1163634D01*
X899366Y-907723D01*
X1153815Y-697225D01*
X1444303Y-540158D01*
X1759763Y-442507D01*
X2107103Y-406000D01*
X49880146Y-406000D01*
X50228652Y-440171D01*
G04 #@! TA.AperFunction,Conductor*
D19*
G36*
X50228652Y-440171D02*
G01*
X50544791Y-535619D01*
X50836366Y-690652D01*
X51092277Y-899366D01*
X51302775Y-1153815D01*
X51459842Y-1444303D01*
X51557493Y-1759763D01*
X51594001Y-2107113D01*
X51594000Y-28880147D01*
X51559829Y-29228653D01*
X51464381Y-29544790D01*
X51309345Y-29836370D01*
X51100630Y-30092281D01*
X50846182Y-30302777D01*
X50555697Y-30459842D01*
X50240237Y-30557493D01*
X49892897Y-30594000D01*
X2119853Y-30594000D01*
X1771347Y-30559829D01*
X1455210Y-30464381D01*
X1163630Y-30309345D01*
X907719Y-30100630D01*
X697223Y-29846182D01*
X540158Y-29555697D01*
X442507Y-29240237D01*
X406000Y-28892897D01*
X406000Y-28854134D01*
X519000Y-28854134D01*
X519000Y-29145866D01*
X575914Y-29431992D01*
X687555Y-29701517D01*
X849632Y-29944083D01*
X1055917Y-30150368D01*
X1298483Y-30312445D01*
X1568008Y-30424086D01*
X1854134Y-30481000D01*
X2145866Y-30481000D01*
X2431992Y-30424086D01*
X2701517Y-30312445D01*
X2944083Y-30150368D01*
X3150368Y-29944083D01*
X3312445Y-29701517D01*
X3424086Y-29431992D01*
X3481000Y-29145866D01*
X3481000Y-28854134D01*
X3461109Y-28754134D01*
X48319000Y-28754134D01*
X48319000Y-29045866D01*
X48375914Y-29331992D01*
X48487555Y-29601517D01*
X48649632Y-29844083D01*
X48855917Y-30050368D01*
X49098483Y-30212445D01*
X49368008Y-30324086D01*
X49654134Y-30381000D01*
X49945866Y-30381000D01*
X50231992Y-30324086D01*
X50501517Y-30212445D01*
X50744083Y-30050368D01*
X50950368Y-29844083D01*
X51112445Y-29601517D01*
X51224086Y-29331992D01*
X51281000Y-29045866D01*
X51281000Y-28754134D01*
X51224086Y-28468008D01*
X51112445Y-28198483D01*
X50950368Y-27955917D01*
X50744083Y-27749632D01*
X50501517Y-27587555D01*
X50231992Y-27475914D01*
X49945866Y-27419000D01*
X49654134Y-27419000D01*
X49368008Y-27475914D01*
X49098483Y-27587555D01*
X48855917Y-27749632D01*
X48649632Y-27955917D01*
X48487555Y-28198483D01*
X48375914Y-28468008D01*
X48319000Y-28754134D01*
X3461109Y-28754134D01*
X3424086Y-28568008D01*
X3312445Y-28298483D01*
X3150368Y-28055917D01*
X2944083Y-27849632D01*
X2701517Y-27687555D01*
X2431992Y-27575914D01*
X2145866Y-27519000D01*
X1854134Y-27519000D01*
X1568008Y-27575914D01*
X1298483Y-27687555D01*
X1055917Y-27849632D01*
X849632Y-28055917D01*
X687555Y-28298483D01*
X575914Y-28568008D01*
X519000Y-28854134D01*
X406000Y-28854134D01*
X406000Y-27269913D01*
X13379200Y-27269913D01*
X13379200Y-27530087D01*
X13429957Y-27785263D01*
X13529522Y-28025634D01*
X13674067Y-28241961D01*
X13858039Y-28425933D01*
X14074366Y-28570478D01*
X14314737Y-28670043D01*
X14569913Y-28720800D01*
X14830087Y-28720800D01*
X15085263Y-28670043D01*
X15325634Y-28570478D01*
X15541961Y-28425933D01*
X15725933Y-28241961D01*
X15870478Y-28025634D01*
X15970043Y-27785263D01*
X16020800Y-27530087D01*
X16020800Y-27269913D01*
X15970043Y-27014737D01*
X15870478Y-26774366D01*
X15725933Y-26558039D01*
X15541961Y-26374067D01*
X15487400Y-26337611D01*
X15487400Y-24823078D01*
X18019000Y-24823078D01*
X18019000Y-24976922D01*
X18049013Y-25127809D01*
X18107887Y-25269942D01*
X18193358Y-25397859D01*
X18302141Y-25506642D01*
X18430058Y-25592113D01*
X18572191Y-25650987D01*
X18723078Y-25681000D01*
X18876922Y-25681000D01*
X19027809Y-25650987D01*
X19169942Y-25592113D01*
X19297859Y-25506642D01*
X19406642Y-25397859D01*
X19492113Y-25269942D01*
X19550987Y-25127809D01*
X19575216Y-25006001D01*
X33734614Y-25006000D01*
X33730058Y-25007887D01*
X33602141Y-25093358D01*
X33493358Y-25202141D01*
X33407887Y-25330058D01*
X33349013Y-25472191D01*
X33319000Y-25623078D01*
X33319000Y-25776922D01*
X33349013Y-25927809D01*
X33407887Y-26069942D01*
X33493358Y-26197859D01*
X33602141Y-26306642D01*
X33730058Y-26392113D01*
X33872191Y-26450987D01*
X34023078Y-26481000D01*
X34176922Y-26481000D01*
X34327809Y-26450987D01*
X34469942Y-26392113D01*
X34554019Y-26335934D01*
X34479957Y-26514737D01*
X34429200Y-26769913D01*
X34429200Y-27030087D01*
X34479957Y-27285263D01*
X34579522Y-27525634D01*
X34724067Y-27741961D01*
X34908039Y-27925933D01*
X35124366Y-28070478D01*
X35364737Y-28170043D01*
X35619913Y-28220800D01*
X35880087Y-28220800D01*
X36135263Y-28170043D01*
X36375634Y-28070478D01*
X36591961Y-27925933D01*
X36775933Y-27741961D01*
X36920478Y-27525634D01*
X37000000Y-27333651D01*
X37079522Y-27525634D01*
X37224067Y-27741961D01*
X37408039Y-27925933D01*
X37624366Y-28070478D01*
X37864737Y-28170043D01*
X38119913Y-28220800D01*
X38380087Y-28220800D01*
X38635263Y-28170043D01*
X38875634Y-28070478D01*
X39091961Y-27925933D01*
X39275933Y-27741961D01*
X39420478Y-27525634D01*
X39520043Y-27285263D01*
X39570800Y-27030087D01*
X39570800Y-26769913D01*
X39520043Y-26514737D01*
X39420478Y-26274366D01*
X39275933Y-26058039D01*
X39091961Y-25874067D01*
X38875634Y-25729522D01*
X38635263Y-25629957D01*
X38380087Y-25579200D01*
X38119913Y-25579200D01*
X37864737Y-25629957D01*
X37745103Y-25679511D01*
X37071590Y-25005999D01*
X41090408Y-25005999D01*
X41544000Y-25459592D01*
X41544000Y-25601922D01*
X41574013Y-25752809D01*
X41632887Y-25894942D01*
X41718358Y-26022859D01*
X41827141Y-26131642D01*
X41955058Y-26217113D01*
X42097191Y-26275987D01*
X42248078Y-26306000D01*
X42401922Y-26306000D01*
X42552809Y-26275987D01*
X42694942Y-26217113D01*
X42822859Y-26131642D01*
X42931642Y-26022859D01*
X43017113Y-25894942D01*
X43075987Y-25752809D01*
X43106000Y-25601922D01*
X43106000Y-25448078D01*
X43075987Y-25297191D01*
X43017113Y-25155058D01*
X42931642Y-25027141D01*
X42822859Y-24918358D01*
X42694942Y-24832887D01*
X42552809Y-24774013D01*
X42401922Y-24744000D01*
X42259592Y-24744000D01*
X41675370Y-24159779D01*
X41659526Y-24140473D01*
X41582478Y-24077241D01*
X41494574Y-24030255D01*
X41399192Y-24001322D01*
X41324853Y-23994000D01*
X41324846Y-23994000D01*
X41300000Y-23991553D01*
X41275154Y-23994000D01*
X19224855Y-23994002D01*
X19199998Y-23991554D01*
X19100806Y-24001323D01*
X19005424Y-24030256D01*
X18917520Y-24077243D01*
X18866638Y-24119000D01*
X18723078Y-24119000D01*
X18572191Y-24149013D01*
X18430058Y-24207887D01*
X18302141Y-24293358D01*
X18193358Y-24402141D01*
X18107887Y-24530058D01*
X18049013Y-24672191D01*
X18019000Y-24823078D01*
X15487400Y-24823078D01*
X15487400Y-23026150D01*
X16726151Y-21787400D01*
X23138673Y-21787400D01*
X23254357Y-21776006D01*
X23402783Y-21730982D01*
X23539572Y-21657866D01*
X23659469Y-21559469D01*
X23757866Y-21439572D01*
X23830982Y-21302783D01*
X23876006Y-21154357D01*
X23891209Y-21000000D01*
X23876006Y-20845643D01*
X23830982Y-20697217D01*
X23757866Y-20560428D01*
X23659469Y-20440531D01*
X23539572Y-20342134D01*
X23402783Y-20269018D01*
X23254357Y-20223994D01*
X23138673Y-20212600D01*
X16438662Y-20212600D01*
X16399999Y-20208792D01*
X16361336Y-20212600D01*
X16361327Y-20212600D01*
X16245643Y-20223994D01*
X16097217Y-20269018D01*
X15960428Y-20342134D01*
X15840531Y-20440531D01*
X15815877Y-20470572D01*
X14170573Y-22115877D01*
X14140532Y-22140531D01*
X14115879Y-22170571D01*
X14042135Y-22260428D01*
X13969018Y-22397218D01*
X13923995Y-22545643D01*
X13908792Y-22700000D01*
X13912601Y-22738673D01*
X13912600Y-26337610D01*
X13858039Y-26374067D01*
X13674067Y-26558039D01*
X13529522Y-26774366D01*
X13429957Y-27014737D01*
X13379200Y-27269913D01*
X406000Y-27269913D01*
X406000Y-21171601D01*
X439810Y-21205754D01*
X588740Y-21306358D01*
X754435Y-21375974D01*
X930528Y-21411927D01*
X1110251Y-21412835D01*
X1252000Y-21293010D01*
X1252000Y-20748000D01*
X1232000Y-20748000D01*
X1232000Y-20252000D01*
X1252000Y-20252000D01*
X1252000Y-19706990D01*
X1110251Y-19587165D01*
X930528Y-19588073D01*
X754435Y-19624026D01*
X588740Y-19693642D01*
X439810Y-19794246D01*
X406000Y-19828399D01*
X406000Y-14171601D01*
X439810Y-14205754D01*
X588740Y-14306358D01*
X754435Y-14375974D01*
X930528Y-14411927D01*
X1110251Y-14412835D01*
X1252000Y-14293010D01*
X1252000Y-13748000D01*
X1232000Y-13748000D01*
X1232000Y-13252000D01*
X1252000Y-13252000D01*
X1252000Y-12706990D01*
X1748000Y-12706990D01*
X1748000Y-13252000D01*
X1768000Y-13252000D01*
X1768000Y-13748000D01*
X1748000Y-13748000D01*
X1748000Y-14293010D01*
X1889749Y-14412835D01*
X2069472Y-14411927D01*
X2245565Y-14375974D01*
X2269011Y-14366123D01*
X2269010Y-17978878D01*
X2269011Y-17978888D01*
X2269011Y-19633877D01*
X2245565Y-19624026D01*
X2069472Y-19588073D01*
X1889749Y-19587165D01*
X1748000Y-19706990D01*
X1748000Y-20252000D01*
X1768000Y-20252000D01*
X1768000Y-20748000D01*
X1748000Y-20748000D01*
X1748000Y-21293010D01*
X1889749Y-21412835D01*
X2069472Y-21411927D01*
X2245565Y-21375974D01*
X2269010Y-21366124D01*
X2269010Y-21623914D01*
X2249013Y-21672191D01*
X2219000Y-21823078D01*
X2219000Y-21976922D01*
X2249013Y-22127809D01*
X2307887Y-22269942D01*
X2393358Y-22397859D01*
X2502141Y-22506642D01*
X2630058Y-22592113D01*
X2772191Y-22650987D01*
X2923078Y-22681000D01*
X3076922Y-22681000D01*
X3227809Y-22650987D01*
X3369942Y-22592113D01*
X3497859Y-22506642D01*
X3606642Y-22397859D01*
X3692113Y-22269942D01*
X3750987Y-22127809D01*
X3781000Y-21976922D01*
X3781000Y-21823078D01*
X3750987Y-21672191D01*
X3692113Y-21530058D01*
X3640610Y-21452978D01*
X3640610Y-20410118D01*
X3678600Y-20372128D01*
X3763872Y-20522201D01*
X3971674Y-20587643D01*
X4188249Y-20611289D01*
X4405277Y-20592228D01*
X4614416Y-20531194D01*
X4636128Y-20522201D01*
X4721400Y-20372128D01*
X4810046Y-20460774D01*
X4884676Y-20386144D01*
X4901590Y-20400025D01*
X5363171Y-20861606D01*
X5336655Y-20901290D01*
X5277781Y-21043423D01*
X5247768Y-21194310D01*
X5247768Y-21348154D01*
X5277781Y-21499041D01*
X5336655Y-21641174D01*
X5422126Y-21769091D01*
X5530909Y-21877874D01*
X5658826Y-21963345D01*
X5800959Y-22022219D01*
X5951846Y-22052232D01*
X6105690Y-22052232D01*
X6256577Y-22022219D01*
X6398710Y-21963345D01*
X6526627Y-21877874D01*
X6635410Y-21769091D01*
X6720881Y-21641174D01*
X6779755Y-21499041D01*
X6809768Y-21348154D01*
X6809768Y-21309768D01*
X6848154Y-21309768D01*
X6999041Y-21279755D01*
X7141174Y-21220881D01*
X7269091Y-21135410D01*
X7377874Y-21026627D01*
X7463345Y-20898710D01*
X7522219Y-20756577D01*
X7552232Y-20605690D01*
X7552232Y-20451846D01*
X7522219Y-20300959D01*
X7463345Y-20158826D01*
X7377874Y-20030909D01*
X7269091Y-19922126D01*
X7141174Y-19836655D01*
X6999041Y-19777781D01*
X6848154Y-19747768D01*
X6694310Y-19747768D01*
X6543423Y-19777781D01*
X6401290Y-19836655D01*
X6361606Y-19863171D01*
X6155992Y-19657557D01*
X6155992Y-19181000D01*
X6251922Y-19181000D01*
X6402809Y-19150987D01*
X6544942Y-19092113D01*
X6672859Y-19006642D01*
X6700000Y-18979501D01*
X6727141Y-19006642D01*
X6855058Y-19092113D01*
X6997191Y-19150987D01*
X7148078Y-19181000D01*
X7301922Y-19181000D01*
X7452809Y-19150987D01*
X7594942Y-19092113D01*
X7722859Y-19006642D01*
X7831642Y-18897859D01*
X7917113Y-18769942D01*
X7975987Y-18627809D01*
X8006000Y-18476922D01*
X8006000Y-18323078D01*
X7975987Y-18172191D01*
X7917113Y-18030058D01*
X7831642Y-17902141D01*
X7722859Y-17793358D01*
X7594942Y-17707887D01*
X7452809Y-17649013D01*
X7301922Y-17619000D01*
X7148078Y-17619000D01*
X7128192Y-17622956D01*
X6456830Y-16951594D01*
X6441764Y-16933236D01*
X6368522Y-16873128D01*
X6284961Y-16828464D01*
X6194292Y-16800960D01*
X6123626Y-16794000D01*
X6100000Y-16791673D01*
X6076374Y-16794000D01*
X5630423Y-16794000D01*
X5606799Y-16791673D01*
X5583175Y-16794000D01*
X5583174Y-16794000D01*
X5512508Y-16800960D01*
X5421839Y-16828464D01*
X5338278Y-16873128D01*
X5265036Y-16933236D01*
X5249974Y-16951589D01*
X4789554Y-17412010D01*
X4771196Y-17427076D01*
X4711088Y-17500318D01*
X4666424Y-17583880D01*
X4656449Y-17616764D01*
X4638920Y-17674548D01*
X4629633Y-17768840D01*
X4631960Y-17792467D01*
X4631961Y-18476487D01*
X4428326Y-18412357D01*
X4211751Y-18388711D01*
X3994723Y-18407772D01*
X3785584Y-18468806D01*
X3763872Y-18477799D01*
X3678600Y-18627872D01*
X3640610Y-18589882D01*
X3640610Y-15410118D01*
X3678600Y-15372128D01*
X3763872Y-15522201D01*
X3971674Y-15587643D01*
X4188249Y-15611289D01*
X4405277Y-15592228D01*
X4614416Y-15531194D01*
X4636128Y-15522201D01*
X4721401Y-15372126D01*
X4200000Y-14850725D01*
X4185858Y-14864868D01*
X3835133Y-14514143D01*
X3849275Y-14500000D01*
X4550725Y-14500000D01*
X5072126Y-15021401D01*
X5222201Y-14936128D01*
X5287643Y-14728326D01*
X5311289Y-14511751D01*
X5303502Y-14423078D01*
X11893990Y-14423078D01*
X11893990Y-14576922D01*
X11924003Y-14727809D01*
X11982877Y-14869942D01*
X12068348Y-14997859D01*
X12168991Y-15098502D01*
X12168990Y-17775463D01*
X12166543Y-17800309D01*
X12168990Y-17825155D01*
X12168990Y-17825162D01*
X12176312Y-17899501D01*
X12205245Y-17994883D01*
X12252231Y-18082788D01*
X12315463Y-18159836D01*
X12334775Y-18175685D01*
X12931379Y-18772290D01*
X12931379Y-18914620D01*
X12961392Y-19065507D01*
X13020266Y-19207640D01*
X13105737Y-19335557D01*
X13214520Y-19444340D01*
X13342437Y-19529811D01*
X13484570Y-19588685D01*
X13635457Y-19618698D01*
X13789301Y-19618698D01*
X13940188Y-19588685D01*
X14082321Y-19529811D01*
X14210238Y-19444340D01*
X14319021Y-19335557D01*
X14404492Y-19207640D01*
X14463366Y-19065507D01*
X14493379Y-18914620D01*
X14493379Y-18760776D01*
X14463366Y-18609889D01*
X14404492Y-18467756D01*
X14319021Y-18339839D01*
X14210238Y-18231056D01*
X14082321Y-18145585D01*
X13940188Y-18086711D01*
X13789301Y-18056698D01*
X13646971Y-18056698D01*
X13180990Y-17590718D01*
X13180990Y-16396581D01*
X13824628Y-17040220D01*
X13840473Y-17059527D01*
X13917521Y-17122759D01*
X14005425Y-17169745D01*
X14100807Y-17198678D01*
X14200000Y-17208448D01*
X14224854Y-17206000D01*
X15251499Y-17206000D01*
X15352141Y-17306642D01*
X15480058Y-17392113D01*
X15622191Y-17450987D01*
X15773078Y-17481000D01*
X15926922Y-17481000D01*
X16077809Y-17450987D01*
X16219942Y-17392113D01*
X16347859Y-17306642D01*
X16456642Y-17197859D01*
X16542113Y-17069942D01*
X16600987Y-16927809D01*
X16631000Y-16776922D01*
X16631000Y-16623078D01*
X16600987Y-16472191D01*
X16542113Y-16330058D01*
X16456642Y-16202141D01*
X16347859Y-16093358D01*
X16219942Y-16007887D01*
X16077809Y-15949013D01*
X15926922Y-15919000D01*
X15773078Y-15919000D01*
X15622191Y-15949013D01*
X15480058Y-16007887D01*
X15352141Y-16093358D01*
X15251499Y-16194000D01*
X14409592Y-16194000D01*
X13906000Y-15690409D01*
X13906000Y-15123078D01*
X18019000Y-15123078D01*
X18019000Y-15276922D01*
X18049013Y-15427809D01*
X18107887Y-15569942D01*
X18193358Y-15697859D01*
X18302141Y-15806642D01*
X18430058Y-15892113D01*
X18572191Y-15950987D01*
X18723078Y-15981000D01*
X18876922Y-15981000D01*
X19027809Y-15950987D01*
X19169942Y-15892113D01*
X19297859Y-15806642D01*
X19398501Y-15706000D01*
X25601499Y-15706000D01*
X25702141Y-15806642D01*
X25830058Y-15892113D01*
X25972191Y-15950987D01*
X26123078Y-15981000D01*
X26276922Y-15981000D01*
X26427809Y-15950987D01*
X26569942Y-15892113D01*
X26697859Y-15806642D01*
X26806642Y-15697859D01*
X26892113Y-15569942D01*
X26950987Y-15427809D01*
X26981000Y-15276922D01*
X26981000Y-15123078D01*
X26950987Y-14972191D01*
X26892113Y-14830058D01*
X26806642Y-14702141D01*
X26697859Y-14593358D01*
X26569942Y-14507887D01*
X26427809Y-14449013D01*
X26276922Y-14419000D01*
X26123078Y-14419000D01*
X25972191Y-14449013D01*
X25830058Y-14507887D01*
X25702141Y-14593358D01*
X25601499Y-14694000D01*
X19398501Y-14694000D01*
X19297859Y-14593358D01*
X19169942Y-14507887D01*
X19027809Y-14449013D01*
X18876922Y-14419000D01*
X18723078Y-14419000D01*
X18572191Y-14449013D01*
X18430058Y-14507887D01*
X18302141Y-14593358D01*
X18193358Y-14702141D01*
X18107887Y-14830058D01*
X18049013Y-14972191D01*
X18019000Y-15123078D01*
X13906000Y-15123078D01*
X13906000Y-13198501D01*
X14006642Y-13097859D01*
X14092113Y-12969942D01*
X14150987Y-12827809D01*
X14181000Y-12676922D01*
X14181000Y-12523078D01*
X14150987Y-12372191D01*
X14092113Y-12230058D01*
X14006642Y-12102141D01*
X13897859Y-11993358D01*
X13769942Y-11907887D01*
X13627809Y-11849013D01*
X13476922Y-11819000D01*
X13323078Y-11819000D01*
X13172191Y-11849013D01*
X13030058Y-11907887D01*
X12902141Y-11993358D01*
X12793358Y-12102141D01*
X12707887Y-12230058D01*
X12649013Y-12372191D01*
X12619000Y-12523078D01*
X12619000Y-12676922D01*
X12649013Y-12827809D01*
X12707887Y-12969942D01*
X12793358Y-13097859D01*
X12894000Y-13198501D01*
X12894000Y-13747263D01*
X12751912Y-13719000D01*
X12598068Y-13719000D01*
X12447181Y-13749013D01*
X12305048Y-13807887D01*
X12177131Y-13893358D01*
X12068348Y-14002141D01*
X11982877Y-14130058D01*
X11924003Y-14272191D01*
X11893990Y-14423078D01*
X5303502Y-14423078D01*
X5292228Y-14294723D01*
X5231194Y-14085584D01*
X5222201Y-14063872D01*
X5072126Y-13978599D01*
X4550725Y-14500000D01*
X3849275Y-14500000D01*
X3835133Y-14485858D01*
X4185858Y-14135133D01*
X4200000Y-14149275D01*
X4721401Y-13627874D01*
X4697494Y-13585800D01*
X5420610Y-13585800D01*
X5430058Y-13592113D01*
X5572191Y-13650987D01*
X5723078Y-13681000D01*
X5876922Y-13681000D01*
X6027809Y-13650987D01*
X6169942Y-13592113D01*
X6297859Y-13506642D01*
X6406642Y-13397859D01*
X6492113Y-13269942D01*
X6550987Y-13127809D01*
X6581000Y-12976922D01*
X6581000Y-12823078D01*
X6550987Y-12672191D01*
X6492113Y-12530058D01*
X6406642Y-12402141D01*
X6297859Y-12293358D01*
X6169942Y-12207887D01*
X6027809Y-12149013D01*
X5876922Y-12119000D01*
X5723078Y-12119000D01*
X5572191Y-12149013D01*
X5430058Y-12207887D01*
X5420610Y-12214200D01*
X4013580Y-12214200D01*
X3979894Y-12210882D01*
X3946208Y-12214200D01*
X3946205Y-12214200D01*
X3845454Y-12224123D01*
X3716180Y-12263338D01*
X3597041Y-12327019D01*
X3492614Y-12412720D01*
X3471136Y-12438891D01*
X2719254Y-13190773D01*
X2745404Y-13126889D01*
X2686632Y-12921972D01*
X2560190Y-12794246D01*
X2411260Y-12693642D01*
X2245565Y-12624026D01*
X2069472Y-12588073D01*
X1889749Y-12587165D01*
X1748000Y-12706990D01*
X1252000Y-12706990D01*
X1110251Y-12587165D01*
X930528Y-12588073D01*
X754435Y-12624026D01*
X588740Y-12693642D01*
X439810Y-12794246D01*
X406000Y-12828399D01*
X406000Y-6800000D01*
X6708791Y-6800000D01*
X6723994Y-6954357D01*
X6769018Y-7102783D01*
X6842134Y-7239572D01*
X6940531Y-7359469D01*
X7060428Y-7457866D01*
X7197217Y-7530982D01*
X7345643Y-7576006D01*
X7461327Y-7587400D01*
X22473850Y-7587400D01*
X23612600Y-8726152D01*
X23612600Y-9261327D01*
X23608791Y-9300000D01*
X23623994Y-9454357D01*
X23669018Y-9602783D01*
X23742134Y-9739572D01*
X23840531Y-9859469D01*
X23960428Y-9957866D01*
X24097217Y-10030982D01*
X24245643Y-10076006D01*
X24361327Y-10087400D01*
X24400000Y-10091209D01*
X24438673Y-10087400D01*
X24554357Y-10076006D01*
X24702783Y-10030982D01*
X24839572Y-9957866D01*
X24959469Y-9859469D01*
X25057866Y-9739572D01*
X25130982Y-9602783D01*
X25176006Y-9454357D01*
X25191209Y-9300000D01*
X25187400Y-9261327D01*
X25187400Y-8438665D01*
X25191208Y-8400000D01*
X25187400Y-8361335D01*
X25187400Y-8361327D01*
X25176006Y-8245643D01*
X25130982Y-8097217D01*
X25117605Y-8072191D01*
X25057866Y-7960427D01*
X24984122Y-7870570D01*
X24984119Y-7870567D01*
X24959469Y-7840531D01*
X24929434Y-7815882D01*
X23384127Y-6270577D01*
X23359469Y-6240531D01*
X23239572Y-6142134D01*
X23102783Y-6069018D01*
X22954357Y-6023994D01*
X22838673Y-6012600D01*
X22838663Y-6012600D01*
X22800000Y-6008792D01*
X22761337Y-6012600D01*
X7461327Y-6012600D01*
X7345643Y-6023994D01*
X7197217Y-6069018D01*
X7060428Y-6142134D01*
X6940531Y-6240531D01*
X6842134Y-6360428D01*
X6769018Y-6497217D01*
X6723994Y-6645643D01*
X6708791Y-6800000D01*
X406000Y-6800000D01*
X406000Y-2119854D01*
X422248Y-1954134D01*
X619000Y-1954134D01*
X619000Y-2245866D01*
X675914Y-2531992D01*
X787555Y-2801517D01*
X949632Y-3044083D01*
X1155917Y-3250368D01*
X1398483Y-3412445D01*
X1668008Y-3524086D01*
X1954134Y-3581000D01*
X2245866Y-3581000D01*
X2531992Y-3524086D01*
X2801517Y-3412445D01*
X3044083Y-3250368D01*
X3250368Y-3044083D01*
X3412445Y-2801517D01*
X3444935Y-2723078D01*
X26819000Y-2723078D01*
X26819000Y-2876922D01*
X26849013Y-3027809D01*
X26907887Y-3169942D01*
X26993358Y-3297859D01*
X27094000Y-3398501D01*
X27094001Y-7701498D01*
X26993358Y-7802141D01*
X26907887Y-7930058D01*
X26849013Y-8072191D01*
X26819000Y-8223078D01*
X26819000Y-8376922D01*
X26849013Y-8527809D01*
X26907887Y-8669942D01*
X26993358Y-8797859D01*
X27102141Y-8906642D01*
X27230058Y-8992113D01*
X27372191Y-9050987D01*
X27523078Y-9081000D01*
X27676922Y-9081000D01*
X27827809Y-9050987D01*
X27969942Y-8992113D01*
X28097859Y-8906642D01*
X28200000Y-8804501D01*
X28302141Y-8906642D01*
X28430058Y-8992113D01*
X28572191Y-9050987D01*
X28723078Y-9081000D01*
X28876922Y-9081000D01*
X29027809Y-9050987D01*
X29095186Y-9023078D01*
X36219000Y-9023078D01*
X36219000Y-9176922D01*
X36249013Y-9327809D01*
X36307887Y-9469942D01*
X36393358Y-9597859D01*
X36502141Y-9706642D01*
X36630058Y-9792113D01*
X36772191Y-9850987D01*
X36923078Y-9881000D01*
X37076922Y-9881000D01*
X37227809Y-9850987D01*
X37369942Y-9792113D01*
X37497859Y-9706642D01*
X37606642Y-9597859D01*
X37692113Y-9469942D01*
X37750987Y-9327809D01*
X37781000Y-9176922D01*
X37781000Y-9023078D01*
X37750987Y-8872191D01*
X37692113Y-8730058D01*
X37685800Y-8720610D01*
X37685800Y-5484067D01*
X38111134Y-5058733D01*
X38223078Y-5081000D01*
X38376922Y-5081000D01*
X38527809Y-5050987D01*
X38669942Y-4992113D01*
X38797859Y-4906642D01*
X38906642Y-4797859D01*
X38992113Y-4669942D01*
X39050987Y-4527809D01*
X39081000Y-4376922D01*
X39081000Y-4223078D01*
X39050987Y-4072191D01*
X38992113Y-3930058D01*
X38906642Y-3802141D01*
X38797859Y-3693358D01*
X38669942Y-3607887D01*
X38527809Y-3549013D01*
X38376922Y-3519000D01*
X38223078Y-3519000D01*
X38072191Y-3549013D01*
X37930058Y-3607887D01*
X37922289Y-3613078D01*
X37899999Y-3610883D01*
X37866320Y-3614200D01*
X37866311Y-3614200D01*
X37765560Y-3624123D01*
X37636286Y-3663338D01*
X37517147Y-3727019D01*
X37412720Y-3812720D01*
X37391246Y-3838886D01*
X36538886Y-4691247D01*
X36512721Y-4712720D01*
X36491248Y-4738885D01*
X36491245Y-4738888D01*
X36427020Y-4817147D01*
X36363339Y-4936286D01*
X36324124Y-5065560D01*
X36310883Y-5200000D01*
X36314201Y-5233689D01*
X36314200Y-8720610D01*
X36307887Y-8730058D01*
X36249013Y-8872191D01*
X36219000Y-9023078D01*
X29095186Y-9023078D01*
X29169942Y-8992113D01*
X29297859Y-8906642D01*
X29406642Y-8797859D01*
X29492113Y-8669942D01*
X29550987Y-8527809D01*
X29581000Y-8376922D01*
X29581000Y-8223078D01*
X29550987Y-8072191D01*
X29492113Y-7930058D01*
X29406642Y-7802141D01*
X29297859Y-7693358D01*
X29169942Y-7607887D01*
X29027809Y-7549013D01*
X28876922Y-7519000D01*
X28806000Y-7519000D01*
X28806000Y-3675216D01*
X28927809Y-3650987D01*
X29069942Y-3592113D01*
X29197859Y-3506642D01*
X29306642Y-3397859D01*
X29392113Y-3269942D01*
X29450987Y-3127809D01*
X29481000Y-2976922D01*
X29481000Y-2823078D01*
X29450987Y-2672191D01*
X29392113Y-2530058D01*
X29306642Y-2402141D01*
X29197859Y-2293358D01*
X29069942Y-2207887D01*
X28927809Y-2149013D01*
X28776922Y-2119000D01*
X28623078Y-2119000D01*
X28472191Y-2149013D01*
X28330058Y-2207887D01*
X28202141Y-2293358D01*
X28200000Y-2295499D01*
X28097859Y-2193358D01*
X27969942Y-2107887D01*
X27827809Y-2049013D01*
X27676922Y-2019000D01*
X27523078Y-2019000D01*
X27372191Y-2049013D01*
X27230058Y-2107887D01*
X27102141Y-2193358D01*
X26993358Y-2302141D01*
X26907887Y-2430058D01*
X26849013Y-2572191D01*
X26819000Y-2723078D01*
X3444935Y-2723078D01*
X3524086Y-2531992D01*
X3581000Y-2245866D01*
X3581000Y-1954134D01*
X3571055Y-1904134D01*
X48419000Y-1904134D01*
X48419000Y-2195866D01*
X48475914Y-2481992D01*
X48587555Y-2751517D01*
X48749632Y-2994083D01*
X48955917Y-3200368D01*
X49198483Y-3362445D01*
X49468008Y-3474086D01*
X49754134Y-3531000D01*
X50045866Y-3531000D01*
X50331992Y-3474086D01*
X50601517Y-3362445D01*
X50844083Y-3200368D01*
X51050368Y-2994083D01*
X51212445Y-2751517D01*
X51324086Y-2481992D01*
X51381000Y-2195866D01*
X51381000Y-1904134D01*
X51324086Y-1618008D01*
X51212445Y-1348483D01*
X51050368Y-1105917D01*
X50844083Y-899632D01*
X50601517Y-737555D01*
X50331992Y-625914D01*
X50045866Y-569000D01*
X49754134Y-569000D01*
X49468008Y-625914D01*
X49198483Y-737555D01*
X48955917Y-899632D01*
X48749632Y-1105917D01*
X48587555Y-1348483D01*
X48475914Y-1618008D01*
X48419000Y-1904134D01*
X3571055Y-1904134D01*
X3524086Y-1668008D01*
X3412445Y-1398483D01*
X3250368Y-1155917D01*
X3044083Y-949632D01*
X2801517Y-787555D01*
X2531992Y-675914D01*
X2245866Y-619000D01*
X1954134Y-619000D01*
X1668008Y-675914D01*
X1398483Y-787555D01*
X1155917Y-949632D01*
X949632Y-1155917D01*
X787555Y-1398483D01*
X675914Y-1668008D01*
X619000Y-1954134D01*
X422248Y-1954134D01*
X440171Y-1771348D01*
X535619Y-1455209D01*
X690652Y-1163634D01*
X899366Y-907723D01*
X1153815Y-697225D01*
X1444303Y-540158D01*
X1759763Y-442507D01*
X2107103Y-406000D01*
X49880146Y-406000D01*
X50228652Y-440171D01*
G37*
G04 #@! TD.AperFunction*
D18*
X4564868Y-19485858D02*
X4550725Y-19500000D01*
X4564868Y-19514143D01*
X4214143Y-19864868D01*
X4200000Y-19850725D01*
X4185858Y-19864868D01*
X3835133Y-19514143D01*
X3849275Y-19500000D01*
X3835133Y-19485858D01*
X4185858Y-19135133D01*
X4200000Y-19149275D01*
X4214143Y-19135133D01*
X4564868Y-19485858D01*
G04 #@! TA.AperFunction,Conductor*
D19*
G36*
X4564868Y-19485858D02*
G01*
X4550725Y-19500000D01*
X4564868Y-19514143D01*
X4214143Y-19864868D01*
X4200000Y-19850725D01*
X4185858Y-19864868D01*
X3835133Y-19514143D01*
X3849275Y-19500000D01*
X3835133Y-19485858D01*
X4185858Y-19135133D01*
X4200000Y-19149275D01*
X4214143Y-19135133D01*
X4564868Y-19485858D01*
G37*
G04 #@! TD.AperFunction*
G04 #@! TD*
M02*
