<?xml version="1.0" encoding="utf-8"?>
<!-- Generator: Adobe Illustrator 24.0.3, SVG Export Plug-In . SVG Version: 6.00 Build 0)  -->
<svg version="1.1" id="Layer_1" xmlns="http://www.w3.org/2000/svg" xmlns:xlink="http://www.w3.org/1999/xlink" x="0px" y="0px"
	 viewBox="0 0 197 225.8" style="enable-background:new 0 0 197 225.8;" xml:space="preserve">
<style type="text/css">
	.st0{fill:url(#SVGID_1_);}
	.st1{fill:url(#SVGID_2_);}
</style>
<title>Neuralume-Square-White</title>
<radialGradient id="SVGID_1_" cx="124.59" cy="6.14" r="134.98" gradientTransform="matrix(1 0 0 -1 0 227.4489)" gradientUnits="userSpaceOnUse">
	<stop  offset="0" style="stop-color:#BE64BD"/>
	<stop  offset="0.46" style="stop-color:#D262B4"/>
	<stop  offset="1" style="stop-color:#FF8D74"/>
</radialGradient>
<path class="st0" d="M127.9,67.8c5.2,9.8,7.8,18.8,7.8,27c0,35-28.4,63.4-63.4,63.4c0,0,0,0,0,0c-1,0-2.1,0-3.1-0.1
	c9.6,18.2,28.2,39.1,55.6,62.9c42.3-36.5,63.4-66.5,63.4-89.8C188.2,97.3,161.7,69.4,127.9,67.8z"/>
<radialGradient id="SVGID_2_" cx="84.85" cy="221.34" r="138.7" gradientTransform="matrix(1 0 0 -1 0 227.4489)" gradientUnits="userSpaceOnUse">
	<stop  offset="0" style="stop-color:#BE64BD"/>
	<stop  offset="0.46" style="stop-color:#D262B4"/>
	<stop  offset="1" style="stop-color:#FF8D74"/>
</radialGradient>
<path class="st1" d="M124.8,67.7c1,0,2.1,0,3.1,0.1c-9.6-18.2-28.2-39.1-55.6-62.9C30,41.4,8.8,71.4,8.8,94.7
	c0,33.8,26.6,61.7,60.3,63.3c-5.2-9.8-7.8-18.8-7.8-27C61.4,96.1,89.8,67.7,124.8,67.7z"/>
</svg>
